<svg width="40" height="40" viewBox="0 0 40 40" fill="none" xmlns="http://www.w3.org/2000/svg">
<rect width="40" height="40" rx="20" fill="#3A3BEB"/>
<mask id="mask0_1148_21291" style="mask-type:alpha" maskUnits="userSpaceOnUse" x="8" y="13" width="24" height="16">
<path opacity="0.35" d="M8.5 26H28C28 27.3807 26.8807 28.5 25.5 28.5H8.5V26Z" fill="black"/>
<path opacity="0.7" fill-rule="evenodd" clip-rule="evenodd" d="M27 13H13V26H27V13ZM19.2426 23.2427L24.9429 17.5423L24.5451 17.1636C23.759 16.4151 22.5194 16.4303 21.7518 17.1979L19.2426 19.7071L18.1819 18.6465C17.4009 17.8654 16.1345 17.8654 15.3535 18.6465L15 19L19.2426 23.2427Z" fill="black"/>
<path fill-rule="evenodd" clip-rule="evenodd" d="M12.5 13C10.2909 13 8.5 14.7909 8.5 17V26H13V13H12.5ZM31.5 13H27V26H28.5C30.1569 26 31.5 24.6569 31.5 23V13Z" fill="black"/>
</mask>
<g mask="url(#mask0_1148_21291)">
<path d="M8 8H32V32H8V8Z" fill="white"/>
</g>
</svg>
