<?xml version="1.0" encoding="UTF-8"?>
<svg width="44" height="44" viewBox="0 0 44 44" xmlns="http://www.w3.org/2000/svg">
  <path d="M6 6
           H38
           C39.5 6 40 7.5 40 9
           V23
           C40 27 32 34 22 40
           C12 34 4 27 4 23
           V9
           C4 7.5 4.5 6 6 6
           Z"
        fill="rgb(57,59,244)"/>
  <path d="M15.398828125000001 11.251953125H22.887109375Q26.226953125 11.251953125 28.0140625 12.734375Q29.801171875 14.216796875 29.801171875 16.958984375Q29.801171875 19.712890625 28.0140625 21.1953125Q26.226953125 22.677734375 22.887109375 22.677734375H19.910546875V28.748046875H15.398828125000001ZM19.910546875 14.521484375V19.408203125H22.406640625Q23.719140625 19.408203125 24.433984375 18.76953125Q25.148828125 18.130859375 25.148828125 16.958984375Q25.148828125 15.787109375 24.433984375 15.154296875Q23.719140625 14.521484375 22.406640625 14.521484375Z" fill="white"/>
</svg>
