<svg width="40" height="40" viewBox="0 0 40 40" fill="none" xmlns="http://www.w3.org/2000/svg">
<rect width="40" height="40" rx="20" fill="#3A3BEB"/>
<mask id="mask0_957_32831" style="mask-type:alpha" maskUnits="userSpaceOnUse" x="8" y="10" width="24" height="19">
<path fill-rule="evenodd" clip-rule="evenodd" d="M24.5 10.5L32 20H28.5V25C28.5 27.2091 26.7091 29 24.5 29H21.5C23.1562 28.9992 24.4985 27.6564 24.4985 26L24.5 16.5H19.5L24.5 10.5Z" fill="black"/>
<path opacity="0.8" fill-rule="evenodd" clip-rule="evenodd" d="M9.5 26V15C9.5 15.8284 10.1716 16.5 11 16.5H24.5V26C24.5 27.6569 23.1569 29 21.5 29H12.5C10.8431 29 9.5 27.6569 9.5 26ZM19.5 22.25C19.5 21.5596 20.0596 21 20.75 21H21.25C21.9404 21 22.5 21.5596 22.5 22.25C22.5 22.9404 21.9404 23.5 21.25 23.5H20.75C20.0596 23.5 19.5 22.9404 19.5 22.25Z" fill="black"/>
<path opacity="0.35" d="M9.5 15C9.5 14.1716 10.1716 13.5 11 13.5H22L19.5 16.5H11C10.1716 16.5 9.5 15.8284 9.5 15Z" fill="black"/>
</mask>
<g mask="url(#mask0_957_32831)">
<path d="M8 8H32V32H8V8Z" fill="white"/>
</g>
</svg>
