<!DOCTYPE svg PUBLIC "-//W3C//DTD SVG 1.1//EN" "http://www.w3.org/Graphics/SVG/1.1/DTD/svg11.dtd">
<!-- Uploaded to: SVG Repo, www.svgrepo.com, Transformed by: SVG Repo Mixer Tools -->
<svg version="1.1" id="Layer_1" xmlns="http://www.w3.org/2000/svg" xmlns:xlink="http://www.w3.org/1999/xlink" viewBox="0 0 512.00 512.00" xml:space="preserve" width="64px" height="64px" fill="#000000">
<g id="SVGRepo_bgCarrier" stroke-width="0"/>
<g id="SVGRepo_tracerCarrier" stroke-linecap="round" stroke-linejoin="round"/>
<g id="SVGRepo_iconCarrier"> <path style="fill:#08a652;" d="M256,0C114.616,0,0,114.616,0,256s114.616,256,256,256s256-114.616,256-256S397.384,0,256,0z"/> <rect x="244" y="346.72" width="24" height="58.152"/> <polygon points="180.928,419.808 188.928,395.808 323.072,395.808 331.072,419.808 "/> <path style="fill:#FFFFFF;" d="M91.976,349.448c-12.12,0-21.976-9.856-21.976-21.976V147.136c0-12.12,9.856-21.976,21.976-21.976 h328.056c12.12,0,21.976,9.856,21.976,21.976v180.336c0,12.12-9.856,21.976-21.976,21.976H91.976z"/> <path d="M420.024,131.16c8.808,0,15.976,7.168,15.976,15.976V327.48c0,8.808-7.168,15.976-15.976,15.976H91.976 c-8.808,0-15.976-7.168-15.976-15.976V147.136c0-8.808,7.168-15.976,15.976-15.976H420.024 M420.024,119.16H91.976 C76.592,119.16,64,131.752,64,147.136V327.48c0,15.384,12.592,27.976,27.976,27.976h328.056c15.384,0,27.976-12.592,27.976-27.976 V147.136C448,131.752,435.408,119.16,420.024,119.16L420.024,119.16z"/> <rect x="318.208" y="160.48" style="fill:#999999;" width="24.4" height="153.88"/> <rect x="280.96" y="194.152" style="fill:#08a652;" width="24.4" height="120.24"/> <rect x="243.8" y="227.808" style="fill:#999999;" width="24.4" height="86.56"/> <rect x="206.6" y="256.64" style="fill:#08a652;" width="24.4" height="57.704"/> <rect x="169.36" y="282.64" style="fill:#999999;" width="24.4" height="31.752"/> </g>
</svg>