<svg width="126" height="46" viewBox="0 0 126 46" fill="none" xmlns="http://www.w3.org/2000/svg">
<path d="M93.0021 11.3559H92.9146V34.7108H93.0021V11.3559Z" fill="#58595B"/>
<mask id="mask0_6819_123207" style="mask-type:luminance" maskUnits="userSpaceOnUse" x="98" y="11" width="17" height="21">
<path d="M100.991 13.0686C99.5169 14.4476 98.769 16.2048 98.769 18.2956C98.769 20.0306 99.275 21.6543 100.265 23.1446C101.123 24.4124 102.618 26.0361 104.884 28.1047L108.403 31.4411C109.041 31.9305 109.965 31.8193 110.471 31.241C111.021 30.6182 110.977 29.6617 110.383 29.0834C108.557 27.4152 108.843 27.6599 107.018 25.9917C105.126 24.279 103.806 22.8332 103.08 21.6765C102.398 20.6089 102.046 19.4968 102.046 18.3846C102.046 17.0945 102.486 16.0714 103.366 15.2484C104.29 14.4032 105.346 14.0028 106.644 14.0028C107.919 14.0028 109.085 14.3364 110.075 15.0037C110.691 15.4486 111.329 16.0491 111.989 16.8276C111.989 16.8276 111.989 16.8276 111.967 16.8276C112.143 17.0723 112.451 17.5394 112.583 18.2289C112.737 19.1186 112.473 19.8304 112.341 20.0973C112.847 20.0973 113.55 19.8526 114.122 19.2298C114.694 18.5848 115.42 16.2048 113.858 14.3364C113.462 13.8693 113.067 13.3133 111.835 12.4903C110.361 11.5116 108.535 11 106.468 11C104.312 11 102.464 11.7118 100.991 13.0686Z" fill="white"/>
</mask>
<g mask="url(#mask0_6819_123207)">
<path d="M115.442 11H98.769V31.9082H115.442V11Z" fill="url(#paint0_linear_6819_123207)"/>
</g>
<mask id="mask1_6819_123207" style="mask-type:luminance" maskUnits="userSpaceOnUse" x="98" y="11" width="17" height="10">
<path d="M100.991 13.0686C99.5169 14.4476 98.769 16.2048 98.769 18.2956C98.769 19.0519 98.857 19.7859 99.055 20.4977C99.121 19.7192 99.3409 18.3846 100.243 17.0723C102.354 14.025 106.226 14.0028 106.644 14.0028C107.919 14.0028 109.085 14.3364 110.075 15.0037C110.691 15.4486 111.329 16.0491 111.989 16.8276C111.989 16.8276 111.989 16.8276 111.967 16.8276C112.143 17.0723 112.451 17.5394 112.583 18.2289C112.737 19.1186 112.473 19.8304 112.341 20.0973C112.847 20.0973 113.55 19.8526 114.122 19.2298C114.694 18.5848 115.42 16.2048 113.858 14.3364C113.462 13.8693 113.067 13.3133 111.835 12.4903C110.361 11.5116 108.535 11 106.468 11C104.312 11 102.464 11.7118 100.991 13.0686Z" fill="white"/>
</mask>
<g mask="url(#mask1_6819_123207)">
<path d="M115.442 11H98.769V20.4977H115.442V11Z" fill="url(#paint1_linear_6819_123207)"/>
</g>
<mask id="mask2_6819_123207" style="mask-type:luminance" maskUnits="userSpaceOnUse" x="109" y="11" width="17" height="24">
<path d="M118.257 11C116.167 11 114.364 11.4893 112.89 12.4903C112.472 12.7794 112.142 13.0241 111.878 13.2688C111.79 13.3355 111.702 13.4245 111.636 13.4912C111.306 13.8026 111.086 14.0918 110.888 14.3364C109.327 16.1826 110.031 18.5848 110.624 19.2298C111.196 19.8526 111.9 20.0973 112.406 20.0973C112.296 19.8304 112.01 19.1186 112.164 18.2289C112.274 17.5394 112.604 17.0723 112.78 16.8276C113.418 16.0491 114.056 15.4263 114.694 15.0037C115.684 14.3364 116.849 14.0028 118.125 14.0028C119.401 14.0028 120.479 14.4032 121.403 15.2484C122.304 16.0714 122.722 17.0945 122.722 18.3846C122.722 19.4745 122.37 20.5867 121.689 21.6766C120.963 22.8109 119.643 24.2567 117.751 25.9917L111.416 32.3753C111.416 32.3753 111.416 32.3753 111.394 32.3976C111.13 32.6645 110.954 33.0426 110.954 33.4652C110.954 34.3105 111.636 35 112.472 35C112.868 35 113.242 34.8443 113.506 34.5774L113.528 34.5551L113.55 34.5329L119.885 28.127C122.15 26.0584 123.646 24.4347 124.504 23.1668C125.494 21.6766 126 20.0306 126 18.3179C126 16.2271 125.252 14.4699 123.778 13.0908C122.282 11.7118 120.435 11 118.257 11Z" fill="white"/>
</mask>
<g mask="url(#mask2_6819_123207)">
<path d="M101.694 13.8248L111.263 40.405L133.589 32.1751L124.02 5.59497L101.694 13.8248Z" fill="url(#paint2_linear_6819_123207)"/>
</g>
<path d="M11.57 11.3557C8.6445 11.3557 6.11494 12.3566 3.98131 14.2695C3.80534 14.4252 3.62937 14.5809 3.4534 14.7588C1.1658 17.0054 0 19.7857 0 23.0109C0 26.2139 1.18779 28.972 3.40941 31.2408C4.94914 32.7977 6.70884 33.8432 8.71049 34.3547C9.61234 34.5772 10.5582 34.6884 11.548 34.6884C12.5378 34.6884 13.5057 34.5772 14.4075 34.3547C14.6715 34.288 14.9134 34.2213 15.1554 34.1323C15.2434 34.0878 15.3533 34.0656 15.4413 34.0211H15.4633C16.8271 33.5318 18.0589 32.7755 19.2027 31.7301L22.7661 34.3325L23.096 34.5772V11.3334L19.2027 14.2917C17.047 12.3566 14.4955 11.3557 11.57 11.3557ZM16.4751 27.9933C15.4193 29.061 14.1875 29.706 12.8018 29.9284C12.4059 29.9952 12.0099 30.0396 11.57 30.0396C9.63433 30.0396 8.00661 29.3946 6.64285 28.0155C5.27909 26.6365 4.6412 24.9683 4.6412 23.0332C4.6412 21.2537 5.1691 19.719 6.31291 18.4066C6.42289 18.2732 6.51087 18.162 6.64285 18.0285C8.00661 16.6495 9.63433 16.0044 11.57 16.0044C13.4837 16.0044 15.1114 16.6717 16.4751 18.0508C17.8389 19.4298 18.4988 21.0758 18.4988 23.0109C18.4988 24.9683 17.8389 26.6142 16.4751 27.9933Z" fill="#EC1C24"/>
<path d="M53.6711 34.1323C54.7929 34.5104 55.9807 34.7106 57.2345 34.7106C58.4663 34.7106 59.6761 34.5104 60.8199 34.1323C61.6557 33.8654 62.4476 33.4873 63.2394 32.9979C65.0211 31.8858 66.4289 30.3955 67.4187 28.5271L67.8586 27.7041L63.8333 25.4131L63.3714 26.3028C62.7775 27.4372 61.9417 28.3714 60.8419 29.0387C59.742 29.706 58.5543 30.0396 57.2565 30.0396C56.1347 30.0396 55.0788 29.8172 54.111 29.2834L64.0533 20.4085L67.4187 17.4057L67.0008 16.7162C65.989 15.0924 64.5592 13.8246 62.9095 12.8682C61.6997 12.1786 60.4019 11.6893 59.0382 11.5114C58.4663 11.4001 57.8724 11.3557 57.2785 11.3557C56.9705 11.3557 56.6846 11.3779 56.3766 11.3779C53.6051 11.5781 51.1855 12.7125 49.1619 14.7366C46.8963 17.0053 45.7305 19.7857 45.7305 23.0109C45.7305 24.8793 46.1484 26.592 46.9183 28.149C47.4682 29.2611 48.238 30.2843 49.1399 31.2185C50.4596 32.5975 51.9774 33.5762 53.6711 34.1323ZM50.3937 21.921C50.5916 20.4307 51.2075 19.1406 52.3073 18.0285C52.5053 17.8506 52.6813 17.6504 52.8792 17.4947H52.9012C54.133 16.4715 55.5848 16.0044 57.2345 16.0044C58.5542 16.0044 59.764 16.338 60.8638 17.0276L50.9436 25.9469C50.5256 25.0127 50.3277 24.0563 50.3277 23.0109C50.3277 22.6328 50.3497 22.2769 50.3937 21.921Z" fill="#EC1C24"/>
<path d="M38.9552 34.644H43.5744V20.9424C43.5744 18.4512 42.7385 16.2714 40.9788 14.5142C39.2411 12.757 37.0855 11.9118 34.5999 11.9118C32.4223 11.9118 30.4866 12.6013 28.8589 14.0249L25.6475 11.4002V34.6884H30.2667V20.9424C30.2667 19.719 30.6846 18.6959 31.5204 17.8506C32.3783 16.9832 33.3901 16.5828 34.5779 16.5828C35.7877 16.5828 36.7995 16.9832 37.6574 17.8284C38.5372 18.6959 38.9112 19.7413 38.9112 20.9646V34.644H38.9552Z" fill="#EC1C24"/>
<path d="M87.1489 34.6884L79.6702 21.3649L85.2792 11.3557H79.8241L76.9206 16.516L74.0171 11.3557H68.5401L74.2151 21.3649L66.6704 34.6884H72.1475L76.9206 26.2139L81.6718 34.6884H87.1489Z" fill="#EC1C24"/>
<defs>
<linearGradient id="paint0_linear_6819_123207" x1="98.7513" y1="21.4693" x2="114.792" y2="21.4693" gradientUnits="userSpaceOnUse">
<stop stop-color="#871719"/>
<stop offset="0.45" stop-color="#DA1F26"/>
<stop offset="1" stop-color="#F0564B"/>
</linearGradient>
<linearGradient id="paint1_linear_6819_123207" x1="98.7513" y1="15.7749" x2="114.792" y2="15.7749" gradientUnits="userSpaceOnUse">
<stop stop-color="#F0564B"/>
<stop offset="0.55" stop-color="#DA1F26"/>
<stop offset="1" stop-color="#871719"/>
</linearGradient>
<linearGradient id="paint2_linear_6819_123207" x1="113.651" y1="11.9653" x2="121.019" y2="31.9848" gradientUnits="userSpaceOnUse">
<stop stop-color="#EC1C24"/>
<stop offset="0.1279" stop-color="#EC1C24"/>
<stop offset="0.204" stop-color="#CB2037"/>
<stop offset="0.5673" stop-color="#2E3191"/>
<stop offset="1" stop-color="#2E3191"/>
</linearGradient>
</defs>
</svg>
