<?xml version="1.0" encoding="UTF-8" standalone="no"?>
<svg
   data-name="Layer 1"
   version="1.1"
   viewBox="0 0 244 44"
   id="svg82"
   sodipodi:docname="Logo_Biblio-Globus1.svg"
   xml:space="preserve"
   inkscape:version="1.2.2 (b0a84865, 2022-12-01)"
   xmlns:inkscape="http://www.inkscape.org/namespaces/inkscape"
   xmlns:sodipodi="http://sodipodi.sourceforge.net/DTD/sodipodi-0.dtd"
   xmlns="http://www.w3.org/2000/svg"
   xmlns:svg="http://www.w3.org/2000/svg"><defs
     id="defs86" /><sodipodi:namedview
     id="namedview84"
     pagecolor="#ffffff"
     bordercolor="#000000"
     borderopacity="0.25"
     inkscape:showpageshadow="2"
     inkscape:pageopacity="0.0"
     inkscape:pagecheckerboard="0"
     inkscape:deskcolor="#d1d1d1"
     showgrid="false"
     inkscape:zoom="3.6603591"
     inkscape:cx="115.15264"
     inkscape:cy="9.5619034"
     inkscape:window-width="1440"
     inkscape:window-height="544"
     inkscape:window-x="72"
     inkscape:window-y="38"
     inkscape:window-maximized="0"
     inkscape:current-layer="svg82" /><g
     transform="matrix(0.53417267,0,0,0.52051821,5,1.0003227)"
     id="g80"><path
       d="m 12.298,41.23 c -0.0107,0.38822 -0.0405,0.76912 -0.0405,1.1567 0,14.834 12.4,26.858 27.698,26.858 9.0747,0 17.121,-4.2417 22.172,-10.788 -0.4702,-0.315 -2.0391,-0.9712 -2.5068,-1.2974 -5.0713,5.5884 -11.385,9.4658 -19.665,9.4658 -14.791,0 -26.867,-11.243 -27.658,-25.395"
       fill="#2b9ed9"
       id="path2" /><path
       d="M 40.344,71.457 C 23.192,71.457 9.237,57.5 9.237,40.345 c 0,-9.8394 4.5483,-18.862 12.175,-24.685 4.0967,4.292 9.6997,12.406 9.6997,24.685 l -0.0513,9.5898 9.5752,-0.3579 h 0.2114 c 1.6202,0 14.435,0.2725 24.976,8.6269 -5.7583,8.2027 -15.213,13.253 -25.479,13.253 m 0.5029,-31.12 c -0.3276,0 -0.5029,0.0074 -0.5029,0.0074 0,-23.724 -16.836,-35.255 -18.066,-36.069 C 9.067,10.9046 0,24.5582 0,40.3442 c 0,22.286 18.063,40.344 40.344,40.344 16.547,0 30.754,-9.96 36.986,-24.21 l -0.104,-0.12348 c -13.458,-15.335 -33.012,-16.018 -36.379,-16.018 z"
       fill="#0a5ca0"
       id="path4"
       style="fill:#004391;fill-opacity:1" /><path
       d="m 47.017,33.61 c 0,0 0.1767,-0.0073 0.5044,-0.0073 0.6035,0 1.7387,0.02 3.2671,0.1474 5.687,-1.0454 13.169,-0.8061 21.352,2.0562 1.3833,0.4834 2.7827,1.0293 4.1997,1.667 -2.7241,-3.2627 -11.724,-9.4351 -25.433,-5.4546 -0.7432,0.2158 -1.4961,0.4565 -2.2739,0.73288 0,0 6.0586,-4.5117 15.264,-4.5796 4.6738,-0.0313 10.15,1.0815 16.057,4.5054 -3.5772,-18.614 -19.947,-32.678 -39.61,-32.678 -2.5561,0 -5.0615,0.24422 -7.4834,0.70122 5.3389,4.9575 14.156,15.738 14.156,32.909"
       fill="#ec680f"
       id="path6" /><path
       d="m 48.633,32.756 c 0.7778,-0.2803 1.5307,-0.521 2.2739,-0.7368 13.71,-3.9805 22.709,2.1919 25.433,5.4546 -1.417,-0.63772 -2.8164,-1.1836 -4.1997,-1.667 -8.1831,-2.8623 -15.665,-3.1016 -21.352,-2.0562 6.2172,0.5152 18.978,2.7481 29.506,12.221 0.2554,-1.8393 0.3975,-3.7163 0.3975,-5.6269 0,-2.6211 -0.2608,-5.1797 -0.7378,-7.667 -5.9072,-3.4312 -11.383,-4.5367 -16.057,-4.5054 -9.2051,0.0679 -15.264,4.5835 -15.264,4.5835"
       fill="#ffd500"
       id="path8" /><g
       fill="#0a5ca0"
       id="g76"
       style="fill:#004391;fill-opacity:1"><path
         d="m 107.4,31.038 v 6.8438 h 9.8198 c 2.1611,0 3.3418,-1.1387 3.3418,-3.4238 0,-2.2774 -1.1807,-3.42 -3.3418,-3.42 z m 9.8198,-5.624 c 6.1143,0 10.838,2.7695 10.838,9.044 0,6.2753 -4.7236,9.0478 -10.838,9.0478 h -15.524 c -1.0186,0 -1.7935,-0.814 -1.7935,-1.8315 v -24.813 c 0,-1.063 0.8164,-1.8794 1.877,-1.8794 h 22.41 c 1.0186,0 1.8775,0.81642 1.8775,1.8794 v 1.8667 c 0,1.022 -0.81689,1.8799 -1.8335,1.8799 h -16.833 v 4.8066 z"
         id="path10"
         style="fill:#004391;fill-opacity:1" /><path
         d="m 145.59,23.132 c 0.4497,-0.8165 1.4263,-1.4273 2.2393,-1.4273 h 5.5825 c 0.6943,0 1.2246,0.5283 1.2246,1.2251 v 19.35 c 0,0.6963 -0.5303,1.2251 -1.2246,1.2251 h -4.1504 c -0.6983,0 -1.2246,-0.5288 -1.2246,-1.2251 v -13.038 l -7.0098,12.835 c -0.4502,0.7749 -1.4287,1.4277 -2.2451,1.4277 h -5.5806 c -0.6894,0 -1.2231,-0.5288 -1.2231,-1.2251 v -19.35 c 0,-0.6968 0.53369,-1.2251 1.2231,-1.2251 h 4.1577 c 0.689,0 1.2247,0.5283 1.2247,1.2251 v 13.079 z"
         id="path12"
         style="fill:#004391;fill-opacity:1" /><path
         d="m 176.13,34.135 c 0,-3.3418 -1.8364,-5.2183 -5.0967,-5.2183 -3.2578,0 -5.0893,1.8765 -5.0893,5.2183 0,3.3418 1.8315,5.2524 5.0893,5.2524 3.2603,0 5.0967,-1.9106 5.0967,-5.2524 m -3.874,-9.7412 c 6.1933,0 10.76,3.3803 10.76,9.7412 0,6.2334 -4.1176,9.7788 -11.982,9.7788 -7.8657,0 -11.978,-3.5869 -11.978,-11.003 v -2.855 c 0,-8.7148 2.5659,-13.769 10.594,-14.502 l 10.962,-0.9814 c 0.6958,-0.0786 1.3061,0.3291 1.3061,1.0195 v 2.6143 c 0,0.8096 -0.6103,1.749 -1.4687,1.8276 l -8.3541,0.69 c -5.5849,0.4502 -7.5361,2.3642 -7.5361,7.0927 1.749,-2.4399 4.272,-3.4223 7.6978,-3.4223 z"
         id="path14"
         style="fill:#004391;fill-opacity:1" /><path
         d="m 192.76,42.04 c -0.2041,0.8545 -1.0205,1.4658 -1.8334,1.4658 h -4.0762 c -0.6939,0 -1.1802,-0.6113 -1.0166,-1.3032 l 3.5864,-14.466 c 1.2227,-4.8887 5.499,-6.0308 9.98,-6.0308 h 9.4184 c 0.6905,0 1.2207,0.5283 1.2207,1.2251 v 19.353 c 0,0.6895 -0.53021,1.2217 -1.2207,1.2217 h -4.4443 c -0.69381,0 -1.2246,-0.5322 -1.2246,-1.2217 v -15.772 h -3.7495 c -1.7915,0 -2.9736,0.7763 -3.5064,2.9375 z"
         id="path16"
         style="fill:#004391;fill-opacity:1" /><path
         d="m 228.79,23.132 c 0.4492,-0.8165 1.4317,-1.4273 2.2432,-1.4273 h 5.583 c 0.6934,0 1.2217,0.5283 1.2217,1.2251 v 19.35 c 0,0.6963 -0.5283,1.2251 -1.2217,1.2251 h -4.1582 c -0.6895,0 -1.2178,-0.5288 -1.2178,-1.2251 v -13.038 l -7.0127,12.835 c -0.4453,0.7749 -1.4238,1.4277 -2.2373,1.4277 h -5.5869 c -0.6914,0 -1.2197,-0.5288 -1.2197,-1.2251 v -19.35 c 0,-0.6968 0.5283,-1.2251 1.2197,-1.2251 h 4.1582 c 0.6943,0 1.2217,0.5283 1.2217,1.2251 v 13.079 z"
         id="path18"
         style="fill:#004391;fill-opacity:1" /><path
         d="m 258.66,32.585 c 0,-4.8101 -1.6748,-6.7627 -5.1367,-6.7627 -3.4649,0 -5.1348,1.9526 -5.1348,6.7627 0,4.8096 1.6699,6.8032 5.1348,6.8032 3.4619,0 5.1367,-1.9936 5.1367,-6.8032 m 6.8828,0 c 0,7.4966 -4.3183,11.33 -12.02,11.33 -7.7051,0 -12.02,-3.833 -12.02,-11.33 0,-7.4966 4.3154,-11.288 12.02,-11.288 7.7012,0 12.02,3.7915 12.02,11.288 z"
         id="path20"
         style="fill:#004391;fill-opacity:1" /><path
         d="m 287.4,16.86 c 0,-1.063 0.8135,-1.8765 1.875,-1.8765 h 19.233 c 1.0567,0 1.8731,0.8135 1.8731,1.8765 v 1.8667 c 0,1.0635 -0.81639,1.8799 -1.8731,1.8799 h -13.609 v 21.067 c 0,1.0175 -0.85841,1.8315 -1.8741,1.8315 h -3.75 c -1.0185,0 -1.875,-0.814 -1.875,-1.8315 z"
         id="path22"
         style="fill:#004391;fill-opacity:1" /><path
         d="m 312.62,42.04 c -0.2061,0.8545 -1.0186,1.4658 -1.835,1.4658 h -4.0762 c -0.6884,0 -1.1787,-0.6113 -1.0185,-1.3032 l 3.5889,-14.466 c 1.2216,-4.8887 5.5,-6.0308 9.9843,-6.0308 h 9.4112 c 0.6924,0 1.2207,0.5283 1.2207,1.2251 v 19.353 c 0,0.6895 -0.5283,1.2217 -1.2207,1.2217 h -4.4405 c -0.6943,0 -1.2246,-0.5322 -1.2246,-1.2217 v -15.772 h -3.7461 c -1.7949,0 -2.9795,0.7763 -3.5058,2.9375 z"
         id="path24"
         style="fill:#004391;fill-opacity:1" /><path
         d="m 350.97,32.585 c 0,-4.8101 -1.6728,-6.7627 -5.1347,-6.7627 -3.461,0 -5.1348,1.9526 -5.1348,6.7627 0,4.8096 1.6738,6.8032 5.1348,6.8032 3.4619,0 5.1347,-1.9936 5.1347,-6.8032 m 6.8867,0 c 0,7.4966 -4.3183,11.33 -12.021,11.33 -7.7012,0 -12.021,-3.833 -12.021,-11.33 0,-7.4966 4.3203,-11.288 12.021,-11.288 7.7031,0 12.021,3.7915 12.021,11.288 z"
         id="path26"
         style="fill:#004391;fill-opacity:1" /><path
         d="m 378.63,34.135 c 0,-3.3418 -1.831,-5.2183 -5.0888,-5.2183 -3.2656,0 -5.0967,1.8765 -5.0967,5.2183 0,3.3418 1.8311,5.2524 5.0967,5.2524 3.2578,0 5.0888,-1.9106 5.0888,-5.2524 m -3.8642,-9.7412 c 6.1875,0 10.751,3.3803 10.751,9.7412 0,6.2334 -4.1114,9.7788 -11.976,9.7788 -7.8682,0 -11.982,-3.5869 -11.982,-11.003 v -2.855 c 0,-8.7148 2.5673,-13.769 10.596,-14.502 l 10.96,-0.9814 c 0.6944,-0.0786 1.3047,0.3291 1.3047,1.0195 v 2.6143 c 0,0.8096 -0.6103,1.749 -1.4648,1.8276 l -8.3565,0.69 c -5.583,0.4502 -7.5381,2.3642 -7.5381,7.0927 1.751,-2.4399 4.2803,-3.4223 7.7061,-3.4223 z"
         id="path28"
         style="fill:#004391;fill-opacity:1" /><path
         d="m 400.18,41.795 c -4.2002,0 -7.2578,-1.9581 -9.539,-9.2925 l -2.9737,-9.6177 c -0.2021,-0.6074 0.2842,-1.1797 0.9366,-1.1797 h 4.1582 c 0.7343,0 1.5468,0.5723 1.791,1.3442 l 2.6074,8.4341 c 1.3447,4.2779 2.6113,5.5025 4.3643,5.5025 l 3.9541,-13.937 c 0.2002,-0.7719 0.9345,-1.3442 1.6689,-1.3442 h 4.1963 c 0.6523,0 1.1006,0.5723 0.9385,1.1797 l -5.2168,18.582 c -1.835,6.4815 -4.2784,9.1704 -8.9649,9.1704 -1.6289,0 -3.874,-0.164 -5.1787,-0.4082 -0.69038,-0.1201 -1.2207,-0.6162 -1.2207,-1.2246 v -2.2012 c 0,-0.6923 0.53032,-1.2207 1.2207,-1.2207 h 0.7344 c 0.8965,0 1.6767,0.32622 2.6084,0.32622 1.918,0 3.1826,-1.3867 3.915,-4.1142"
         id="path30"
         style="fill:#004391;fill-opacity:1" /><path
         d="m 421.88,32.626 c 0,4.4805 1.3447,6.4771 5.4228,6.4771 2.0762,0 3.584,-0.7715 4.2764,-1.8736 0.5683,-0.894 1.2627,-1.4677 2.2812,-1.4677 h 2.9795 c 0.6885,0 1.2207,0.5322 1.2207,1.2246 0,4.6455 -4.2363,6.9282 -11.246,6.9282 -7.7441,0 -12.022,-3.8301 -12.022,-11.289 0,-7.501 4.3193,-11.329 11.816,-11.329 7.0078,0 11.246,2.2813 11.246,6.9312 0,0.6928 -0.5284,1.2177 -1.2188,1.2177 h -2.9775 c -1.0186,0 -1.711,-0.5698 -2.2822,-1.4677 -0.6915,-1.0943 -2.1993,-1.8745 -4.2774,-1.8745 -3.874,0 -5.2187,2.0009 -5.2187,6.5224"
         id="path32"
         style="fill:#004391;fill-opacity:1" /><polygon
         points="103.07,68.004 103.07,58.733 99.902,58.733 99.902,57.588 107.61,57.588 107.61,58.733 104.43,58.733 104.43,68.004 "
         id="polygon34"
         style="fill:#004391;fill-opacity:1" /><path
         d="m 116.8,57.588 2.0727,4.4497 c 0.2666,0.6153 0.5117,1.229 0.7578,1.8369 h 0.0259 c 0.1885,-0.52048 0.3887,-1.1435 0.65481,-1.8686 l 1.6221,-4.418 h 1.4179 l -2.1753,5.3613 c -0.57369,1.4029 -1.2231,2.9947 -1.9477,3.9537 -0.67971,0.851 -1.437,1.2797 -2.3657,1.2797 -0.3384,0 -0.5855,-0.0297 -0.7569,-0.0908 l 0.1397,-1.0981 c 0.10591,0.0317 0.2641,0.04878 0.498,0.04878 1.0801,0 1.7139,-1.0386 2.0371,-1.7935 0.1079,-0.228 0.0777,-0.3701 -0.0473,-0.6157 l -3.4619,-7.0454 z"
         id="path36"
         style="fill:#004391;fill-opacity:1" /><path
         d="m 132.84,62.732 c 0.2891,0.0752 0.6646,0.1074 1.1123,0.1074 1.6196,0 2.6089,-0.7856 2.6089,-2.2222 0,-1.3784 -0.9741,-2.041 -2.4565,-2.041 -0.58651,0 -1.0347,0.0474 -1.2647,0.11128 z m -1.3442,-5.0186 c 0.6455,-0.1094 1.4995,-0.2041 2.5805,-0.2041 1.3233,0 2.2998,0.3096 2.9195,0.8648 0.5713,0.4951 0.9131,1.2514 0.9131,2.1787 0,0.9458 -0.2793,1.686 -0.8077,2.2261 -0.706,0.7568 -1.8676,1.144 -3.1811,1.144 -0.4019,0 -0.772,-0.0171 -1.0801,-0.0962 v 4.1777 h -1.3442 z"
         id="path38"
         style="fill:#004391;fill-opacity:1" /><path
         d="m 148.01,57.588 v 4.3877 c 0,1.6348 -0.0249,3.0132 -0.1211,4.3989 l 0.0322,0.01862 c 0.5249,-1.0801 1.169,-2.209 1.9297,-3.4439 l 3.3662,-5.3613 h 1.3472 v 10.415 h -1.2725 v -4.4404 c 0,-1.6821 0.0171,-2.9184 0.12551,-4.2344 l -0.0473,-0.0097 c -0.5079,1.1425 -1.2178,2.3506 -1.9297,3.5058 l -3.2583,5.1787 h -1.4331 v -10.415 z"
         id="path40"
         style="fill:#004391;fill-opacity:1" /><path
         d="m 171.21,67.662 c -0.4961,0.2456 -1.4839,0.5098 -2.7486,0.5098 -2.9355,0 -5.1426,-1.8711 -5.1426,-5.2837 0,-3.2632 2.2071,-5.4697 5.439,-5.4697 1.291,0 2.1143,0.2759 2.4639,0.4609 l -0.3194,1.0987 c -0.5112,-0.2456 -1.2402,-0.4307 -2.103,-0.4307 -2.4389,0 -4.0586,1.561 -4.0586,4.2915 0,2.5503 1.4663,4.187 3.9942,4.187 0.82171,0 1.6562,-0.16992 2.2016,-0.4326 z"
         id="path42"
         style="fill:#004391;fill-opacity:1" /><polygon
         points="182.44,68.004 182.44,58.733 179.28,58.733 179.28,57.588 186.98,57.588 186.98,58.733 183.8,58.733 183.8,68.004 "
         id="polygon44"
         style="fill:#004391;fill-opacity:1" /><path
         d="m 196.44,57.588 v 4.3877 c 0,1.6348 -0.0337,3.0132 -0.1265,4.3989 l 0.0303,0.01862 c 0.5303,-1.0801 1.1763,-2.209 1.9331,-3.4439 l 3.3662,-5.3613 h 1.3462 v 10.415 h -1.2686 v -4.4404 c 0,-1.6821 0.0186,-2.9184 0.1241,-4.2344 l -0.0469,-0.0097 c -0.5078,1.1425 -1.2212,2.3506 -1.9297,3.5058 l -3.2583,5.1787 h -1.438 v -10.416 z"
         id="path46"
         style="fill:#004391;fill-opacity:1" /><path
         d="m 213.54,57.588 v 3.3379 c 0,1.4175 0.74019,2.2388 2.2124,2.2388 0.72361,0 1.5107,-0.26612 2.0488,-0.604 V 57.588 h 1.3623 V 68.06 h -1.3623 v -4.4497 h -0.0303 c -0.7226,0.4189 -1.5879,0.6533 -2.5,0.6533 -1.374,0 -3.0732,-0.5894 -3.0732,-3.1343 v -3.5415 z"
         id="path48"
         style="fill:#004391;fill-opacity:1" /><polygon
         points="234.15,57.588 234.15,58.715 229.87,58.715 229.87,62.006 233.92,62.006 233.92,63.12 229.87,63.12 229.87,66.873 234.38,66.873 234.38,68.004 228.53,68.004 228.53,57.588 "
         id="polygon50"
         style="fill:#004391;fill-opacity:1" /><path
         d="m 250.44,67.662 c -0.498,0.2456 -1.4892,0.5098 -2.7539,0.5098 -2.9375,0 -5.1445,-1.8711 -5.1445,-5.2837 0,-3.2632 2.207,-5.4697 5.4394,-5.4697 1.3008,0 2.1143,0.2759 2.4727,0.4609 l -0.3272,1.0987 c -0.5078,-0.2456 -1.2353,-0.4307 -2.0986,-0.4307 -2.4453,0 -4.0635,1.561 -4.0635,4.2915 0,2.5503 1.4678,4.187 4.001,4.187 0.8193,0 1.6533,-0.16992 2.1943,-0.4326 z"
         id="path52"
         style="fill:#004391;fill-opacity:1" /><path
         d="m 260.47,57.588 v 4.6216 h 0.42091 l 3.5625,-4.6216 h 1.626 l -3.9424,4.7725 c 1.7187,0.2324 2.3789,1.2802 2.9228,2.6884 0.3848,1.0669 0.6778,2.024 1.1426,2.9546 h -1.4521 c -0.3701,-0.7114 -0.6651,-1.6425 -0.9453,-2.4599 -0.4766,-1.3765 -1.1407,-2.3184 -2.9043,-2.3184 h -0.4307 v 4.7783 h -1.3291 v -10.415 z"
         id="path54"
         style="fill:#004391;fill-opacity:1" /><path
         d="m 275.81,57.588 v 4.3877 c 0,1.6348 -0.0303,3.0132 -0.123,4.3989 l 0.0273,0.01862 c 0.5264,-1.0801 1.1758,-2.209 1.9326,-3.4439 l 3.3692,-5.3613 h 1.3428 v 10.415 h -1.2647 v -4.4404 c 0,-1.6821 0.0156,-2.9184 0.1211,-4.2344 l -0.0469,-0.0097 c -0.5078,1.1425 -1.2197,2.3506 -1.9258,3.5058 l -3.2636,5.1787 h -1.4375 v -10.416 z"
         id="path56"
         style="fill:#004391;fill-opacity:1" /><path
         d="m 294.71,55.391 c 0.0625,0.4981 0.2148,0.9781 0.9414,0.9781 0.7119,0 0.8837,-0.4663 0.9423,-0.9781 h 1.0391 c -0.081,1.0342 -0.7012,1.6705 -2.0137,1.6705 -1.2646,0 -1.8662,-0.6475 -1.9443,-1.6705 z m -1.6993,2.1973 v 4.3877 c 0,1.6348 -0.0302,3.0132 -0.122,4.3989 l 0.0293,0.01862 c 0.5234,-1.0801 1.1738,-2.209 1.9316,-3.4439 l 3.3691,-5.3613 h 1.3448 v 10.415 h -1.2686 v -4.4404 c 0,-1.6821 0.0127,-2.9184 0.1231,-4.2344 l -0.045,-0.0097 c -0.5117,1.1425 -1.2236,2.3506 -1.9336,3.5058 l -3.2568,5.1787 h -1.4365 v -10.416 z"
         id="path58"
         style="fill:#004391;fill-opacity:1" /><path
         d="m 320.06,62.856 c 0,2.2236 1.2002,4.2173 3.3184,4.2173 2.1279,0 3.334,-1.96 3.334,-4.3233 0,-2.0732 -1.0791,-4.2329 -3.3203,-4.2329 -2.2237,0 -3.3321,2.0542 -3.3321,4.3389 m 8.0743,-0.17378 c 0,3.5874 -2.1787,5.4897 -4.8369,5.4897 -2.7481,0 -4.6778,-2.1333 -4.6778,-5.2837 0,-3.31 2.0557,-5.4697 4.835,-5.4697 2.8428,0 4.6797,2.1787 4.6797,5.2637 z"
         id="path60"
         style="fill:#004391;fill-opacity:1" /><polygon
         points="336.91,57.588 344.44,57.588 344.44,68.004 343.09,68.004 343.09,58.715 338.25,58.715 338.25,68.004 336.91,68.004 "
         id="polygon62"
         style="fill:#004391;fill-opacity:1" /><polygon
         points="359.44,57.588 359.44,58.715 355.16,58.715 355.16,62.006 359.21,62.006 359.21,63.12 355.16,63.12 355.16,66.873 359.67,66.873 359.67,68.004 353.81,68.004 353.81,57.588 "
         id="polygon64"
         style="fill:#004391;fill-opacity:1" /><path
         d="m 369.79,62.732 c 0.2939,0.0752 0.664,0.1074 1.1133,0.1074 1.6211,0 2.6113,-0.7856 2.6113,-2.2222 0,-1.3784 -0.9707,-2.041 -2.457,-2.041 -0.587,0 -1.0342,0.0474 -1.2676,0.11128 z m -1.3428,-5.0186 c 0.6514,-0.1094 1.499,-0.2041 2.583,-0.2041 1.3242,0 2.2988,0.3096 2.9141,0.8648 0.57612,0.4951 0.9179,1.2514 0.9179,2.1787 0,0.9458 -0.2812,1.686 -0.8046,2.2261 -0.71,0.7568 -1.8741,1.144 -3.1846,1.144 -0.4024,0 -0.7725,-0.0171 -1.083,-0.0962 v 4.1777 h -1.3428 z"
         id="path66"
         style="fill:#004391;fill-opacity:1" /><path
         d="m 387.49,63.675 -1.0175,-2.998 c -0.2364,-0.6831 -0.3897,-1.2988 -0.544,-1.9009 h -0.0342 c -0.1513,0.6172 -0.3222,1.2554 -0.5224,1.8862 l -1.0176,3.0127 z m -3.4131,1.0518 -1.0839,3.2773 h -1.3916 l 3.5361,-10.415 h 1.626 l 3.5508,10.415 h -1.4375 l -1.1075,-3.2773 z"
         id="path68"
         style="fill:#004391;fill-opacity:1" /><polygon
         points="400.18,68.004 400.18,58.733 397.01,58.733 397.01,57.588 404.72,57.588 404.72,58.733 401.54,58.733 401.54,68.004 "
         id="polygon70"
         style="fill:#004391;fill-opacity:1" /><path
         d="m 413.18,62.856 c 0,2.2236 1.2012,4.2173 3.3252,4.2173 2.1299,0 3.334,-1.96 3.334,-4.3233 0,-2.0732 -1.082,-4.2329 -3.3242,-4.2329 -2.2266,0 -3.335,2.0542 -3.335,4.3389 m 8.0811,-0.17378 c 0,3.5874 -2.1807,5.4897 -4.835,5.4897 -2.7529,0 -4.6816,-2.1333 -4.6816,-5.2837 0,-3.31 2.0518,-5.4697 4.8389,-5.4697 2.8349,0 4.6777,2.1787 4.6777,5.2637 z"
         id="path72"
         style="fill:#004391;fill-opacity:1" /><path
         d="m 431.38,62.732 c 0.2959,0.0752 0.6641,0.1074 1.1172,0.1074 1.6182,0 2.6094,-0.7856 2.6094,-2.2222 0,-1.3784 -0.9746,-2.041 -2.458,-2.041 -0.586,0 -1.0352,0.0474 -1.2686,0.11128 z m -1.3427,-5.0186 c 0.6503,-0.1094 1.499,-0.2041 2.5849,-0.2041 1.3252,0 2.2979,0.3096 2.9151,0.8648 0.5742,0.4951 0.9111,1.2514 0.9111,2.1787 0,0.9458 -0.2793,1.686 -0.8018,2.2261 -0.708,0.7568 -1.8691,1.144 -3.1826,1.144 -0.4014,0 -0.7685,-0.0171 -1.084,-0.0962 v 4.1777 h -1.3427 z"
         id="path74"
         style="fill:#004391;fill-opacity:1" /></g><path
       d="m 276.25,28.125 c 2.4024,0 4.3487,1.9468 4.3487,4.3487 0,2.4013 -1.9463,4.3486 -4.3487,4.3486 -2.4013,0 -4.3486,-1.9473 -4.3486,-4.3486 0,-2.4019 1.9473,-4.3487 4.3486,-4.3487"
       fill="#0c5da1"
       fill-rule="evenodd"
       id="path78"
       style="fill:#004391;fill-opacity:1" /></g></svg>
