<svg width="290" height="100" viewBox="0 0 290 100" fill="none" xmlns="http://www.w3.org/2000/svg">
<mask id="mask0_3942_56615" style="mask-type:alpha" maskUnits="userSpaceOnUse" x="17" y="22" width="57" height="56">
<circle cx="45.305" cy="50" r="27.805" fill="#D9D9D9"/>
</mask>
<g mask="url(#mask0_3942_56615)">
<rect x="15.8777" y="21.4058" width="58.8547" height="9.02184" fill="#EE772D"/>
<rect x="15.8777" y="45.7558" width="58.8547" height="11.037" fill="#E84E0E"/>
<rect x="15.8777" y="56.7928" width="58.8547" height="11.9317" fill="#77ABDC"/>
<rect x="15.8777" y="68.7246" width="58.8547" height="9.7877" fill="#1077B1"/>
<rect x="15.8777" y="36.8164" width="58.8547" height="8.93943" fill="#F9B515"/>
<rect x="15.8777" y="30.4276" width="58.8547" height="6.38878" fill="#FCCE86"/>
</g>
<path d="M181.675 55.8047C181.675 62.8041 186.308 64.144 189.435 63.5207V61.974C187.065 62.3356 183.446 61.341 183.446 55.7767V44.562H188.969V42.9598H183.446V37.1801H181.675V55.8047Z" fill="#1C8BCB"/>
<path d="M201.994 44.5232C197.673 43.6937 194.109 48.6792 194.109 54.2793V63.4311H192.341V42.9824H194.109V48.1153C195.202 44.9833 197.989 41.9695 201.994 42.7527V44.5232Z" fill="#1C8BCB"/>
<path d="M272.5 63.5673C270.674 63.9021 267.61 63.1895 267.61 59.2241V36.0592H269.38V58.7732C269.38 61.7269 270.971 62.1192 272.5 61.9221V63.5673Z" fill="#1C8BCB"/>
<path d="M95.3487 63.923C87.619 63.923 82.0077 58.2993 82.0077 50.55C82.0077 42.8027 87.619 37.179 95.3487 37.179C100.944 37.179 103.995 40.1198 104.637 40.8142L102.174 44.7952C101.427 44.1014 99.0118 42.139 95.6919 42.139C91.1216 42.139 87.805 45.656 87.805 50.4998C87.805 52.7676 88.5842 54.873 89.9991 56.4341C91.4786 58.0631 93.5716 58.9604 95.8884 58.9604C99.3303 58.9604 102.026 56.872 103.112 55.882C103.406 57.5109 103.979 59.0342 104.813 60.4151C103.597 61.5024 100.33 63.923 95.3487 63.923Z" fill="#1C8BCB"/>
<path d="M177.685 63.5176C173.674 64.0828 169.781 62.9185 169.781 57.0618V36.0597H174.837V56.2996C174.837 58.5465 175.819 59.4387 177.685 59.2638V63.5176Z" fill="#1C8BCB"/>
<path d="M116.752 59.5902C113.424 59.5902 110.655 57.026 110.655 53.2147C110.655 49.4451 113.424 46.8385 116.752 46.8385C120.041 46.8385 122.809 49.4451 122.809 53.2147C122.809 57.026 120.041 59.5902 116.752 59.5902ZM116.71 42.5064C110.496 42.5064 105.483 46.9586 105.483 53.2147C105.483 59.5119 110.496 63.923 116.752 63.923C122.968 63.923 127.982 59.5119 127.982 53.2147C127.982 46.9586 122.968 42.5064 116.71 42.5064Z" fill="#1C8BCB"/>
<path d="M142.872 42.7851V47.7979C137.195 46.7491 135.655 52.3845 135.655 55.3383V63.438H130.56V42.9848H135.453V47.8188C136.376 44.8931 139.764 42.1246 142.872 42.7851Z" fill="#1C8BCB"/>
<path d="M154.715 59.4959C151.385 59.4959 148.617 56.9279 148.617 53.1178C148.617 49.3496 151.385 46.741 154.715 46.741C158.003 46.741 160.772 49.3496 160.772 53.1178C160.772 56.9279 158.003 59.4959 154.715 59.4959ZM160.741 42.9884V44.7244C158.948 43.2926 156.674 42.4977 154.282 42.4977C148 42.4977 143.439 47.0171 143.439 53.2405C143.439 56.0468 144.467 58.6769 146.334 60.6465C148.322 62.7486 151.128 63.9044 154.238 63.9044C156.784 63.9044 158.966 63.1859 160.741 61.7618V63.4417H165.637V42.9884H160.741Z" fill="#1C8BCB"/>
<path d="M212.338 62.3706C207.279 62.3706 203.462 58.4672 203.462 53.2847C203.462 48.189 207.361 44.1982 212.338 44.1982C217.177 44.1982 220.985 48.0043 221.161 52.9291V53.6509C220.987 58.648 217.252 62.3706 212.338 62.3706ZM221.161 42.9837V47.5325C219.374 44.5637 216.185 42.6293 212.338 42.6293C206.329 42.6293 201.623 47.3106 201.623 53.2847C201.623 56.1935 202.709 58.8849 204.681 60.8545C206.668 62.8431 209.386 63.9408 212.338 63.9408C215.28 63.9408 217.987 62.8431 219.969 60.8526C220.432 60.3879 220.826 59.886 221.161 59.3496V63.4324H222.931V42.9837H221.161Z" fill="#1C8BCB"/>
<path d="M254.422 43.9291C258.837 43.9291 261.799 47.2712 261.75 51.5042H246.246C246.863 47.1479 249.979 43.9291 254.422 43.9291ZM254.425 42.3426C248.415 42.3426 244.292 47.08 244.292 53.1266C244.292 56.0706 245.378 58.7927 247.349 60.7891C249.337 62.8011 252.055 63.9119 255.008 63.9119C257.854 63.9119 260.481 62.8729 262.442 60.979L261.478 59.5119C259.89 61.2642 257.615 62.3234 255.008 62.3234C249.955 62.3234 246.143 58.3822 246.132 53.1494H263.55C264.211 46.7687 260.325 42.3426 254.425 42.3426Z" fill="#1C8BCB"/>
<path d="M241.719 42.9824L235.475 58.8777C235.095 59.8926 234.758 61.1528 234.758 61.1528H234.672C234.672 61.1528 234.336 59.8926 233.955 58.8777L227.712 42.9824H225.816L233.872 63.4311H235.56L243.576 42.9824H241.719Z" fill="#1C8BCB"/>
</svg>
