<svg width="85" height="40" viewBox="0 0 85 40" fill="none" xmlns="http://www.w3.org/2000/svg">
<path d="M45.5495 13.8123C44.8172 14.5448 44.8172 15.7324 45.5495 16.4649C46.2818 17.1974 47.4692 17.1974 48.2015 16.4649L61.4615 3.20196C62.1939 2.46947 62.1939 1.28186 61.4615 0.549369C60.7292 -0.183123 59.5419 -0.183123 58.8095 0.549369L45.5495 13.8123Z" fill="#FFCD00"/>
<path d="M45.5495 2.31931C44.8172 3.0518 44.8172 4.23941 45.5495 4.9719C46.2818 5.70439 47.4692 5.70439 48.2015 4.9719L49.9695 3.20351C50.7018 2.47101 50.7018 1.28341 49.9695 0.550917C49.2372 -0.181575 48.0498 -0.181574 47.3175 0.550918L45.5495 2.31931Z" fill="#FFCD00"/>
<path d="M61.0217 21.3271C60.2893 22.0595 60.2893 23.247 61.0217 23.9794C61.7542 24.7118 62.9417 24.7118 63.6741 23.9794L84.4508 3.2037C85.1833 2.4713 85.1833 1.28385 84.4508 0.551453C83.7184 -0.180945 82.5309 -0.180946 81.7985 0.551453L61.0217 21.3271Z" fill="#FFCD00"/>
<path d="M54.3907 16.4648C53.6583 17.1971 53.6583 18.3846 54.3907 19.117C55.1231 19.8494 56.3106 19.8494 57.0431 19.117L72.9571 3.2037C73.6896 2.47131 73.6896 1.28387 72.9571 0.551474C72.2247 -0.180919 71.0372 -0.180918 70.3048 0.551475L54.3907 16.4648Z" fill="#FFCD00"/>
<path d="M65.8844 30.61C65.1519 29.8776 65.1519 28.6902 65.8844 27.9578L81.7984 12.0445C82.5309 11.3121 83.7184 11.3121 84.4508 12.0445C85.1832 12.7769 85.1832 13.9643 84.4508 14.6967L68.5367 30.61C67.8043 31.3424 66.6168 31.3424 65.8844 30.61Z" fill="#FFCD00"/>
<path d="M80.0303 39.4507C79.2978 38.7183 79.2978 37.5309 80.0303 36.7985L81.7985 35.0303C82.5309 34.2979 83.7184 34.2979 84.4509 35.0303C85.1833 35.7627 85.1833 36.9501 84.4509 37.6825L82.6826 39.4507C81.9502 40.1831 80.7627 40.1831 80.0303 39.4507Z" fill="#FFCD00"/>
<path d="M68.5367 39.4507C67.8043 38.7183 67.8043 37.5309 68.5367 36.7985L81.7986 23.5373C82.531 22.8049 83.7185 22.8049 84.4509 23.5373C85.1833 24.2697 85.1833 25.4572 84.4509 26.1896L71.1891 39.4507C70.4567 40.1831 69.2692 40.1831 68.5367 39.4507Z" fill="#FFCD00"/>
<path d="M60.4048 40C62.0595 40.0031 63.3603 38.6226 63.0891 36.9893C61.8095 29.2835 55.7164 23.1905 48.0107 21.9109C46.3773 21.6397 44.9969 22.9405 45 24.5952L45 36.9795C45.0032 38.6342 46.3659 39.9969 48.0206 40L60.4048 40Z" fill="#FFCD00"/>
<path fill-rule="evenodd" clip-rule="evenodd" d="M19.3045 18.5233C19.7526 18.1755 20.0214 17.8787 20.0214 17.4013C20.0214 16.834 19.5477 16.4862 18.9715 16.4862C18.3957 16.4862 17.986 16.8085 17.986 17.4144C17.986 17.9305 18.3316 18.3045 18.6389 18.6005L18.8821 18.8331L19.3045 18.5233ZM20.7768 22.6628L18.5619 20.3546L18.1909 20.5995C17.6405 20.9736 17.3715 21.4379 17.3715 22.0183C17.3715 22.9464 18.0501 23.4364 19.0229 23.4364C19.7142 23.4364 20.3034 23.1783 20.7768 22.6628ZM22.7102 20.1098C23.1344 20.1098 23.4618 20.4921 23.3491 20.9041C23.1753 21.5398 22.9111 22.1373 22.5567 22.6499L23.2553 23.3672C23.4985 23.6169 23.4982 24.0168 23.2546 24.2661C23.0051 24.5213 22.5964 24.5213 22.347 24.2659L21.6819 23.5849L21.5193 23.7332C20.7898 24.3522 19.9063 24.6875 18.9715 24.6875C17.1919 24.6875 15.9375 23.7718 15.9375 22.0571C15.9375 20.793 16.7439 20.0712 17.5122 19.5681L17.6812 19.46L17.5122 19.2589C16.9617 18.6007 16.6544 18.1624 16.6544 17.389C16.6544 16.1897 17.5505 15.3125 18.9331 15.3125C20.3033 15.3125 21.3529 16.0862 21.3529 17.3627C21.3529 18.3557 20.6743 18.936 19.6501 19.6584L21.5961 21.683C21.7711 21.3893 21.9028 21.0461 21.9981 20.6896C22.0864 20.3593 22.3706 20.1098 22.7102 20.1098Z" fill="#E73C3E"/>
<path fill-rule="evenodd" clip-rule="evenodd" d="M0.312501 2.1875C0.312501 0.979377 1.29188 0 2.5 0H8.75C9.78553 0 10.625 0.839466 10.625 1.875C10.625 2.91053 9.78553 3.75 8.75 3.75H5C4.48223 3.75 4.0625 4.16973 4.0625 4.6875V6.8743C4.0625 7.39207 4.48223 7.8118 5 7.8118H8.31935C9.18249 7.8118 9.8822 8.51151 9.8822 9.37465C9.8822 10.2378 9.18249 10.9375 8.31935 10.9375H5C4.48223 10.9375 4.0625 11.3572 4.0625 11.875L4.0625 16.25C4.0625 17.2855 3.22303 18.125 2.1875 18.125C1.15197 18.125 0.3125 17.2855 0.3125 16.25L0.312501 2.1875Z" fill="#E73C3E"/>
<path fill-rule="evenodd" clip-rule="evenodd" d="M14.6875 0C15.723 0 16.5625 0.839466 16.5625 1.875V6.875C16.5625 8.25571 17.5 9.6875 19.0625 9.6875C20.625 9.6875 21.5625 8.25571 21.5625 6.875V1.875C21.5625 0.839466 22.4019 0 23.4375 0C24.473 0 25.3125 0.839466 25.3125 1.875V6.875C25.3125 10.3268 22.5143 12.8125 19.0625 12.8125C15.6107 12.8125 12.8125 10.3268 12.8125 6.875V1.875C12.8125 0.839466 13.6519 0 14.6875 0Z" fill="#E73C3E"/>
<path fill-rule="evenodd" clip-rule="evenodd" d="M27.5 1.875C27.5 0.839466 28.3395 0 29.375 0H29.4183C30.0945 0 30.7182 0.364061 31.0508 0.952786L36.2498 10.1562C36.2498 10.1562 36.25 5.4704 36.25 1.87474C36.25 0.839203 37.0895 0 38.125 0C39.1605 0 40 0.839466 40 1.875V16.25C40 17.2855 39.1605 18.125 38.125 18.125H38.0814C37.4052 18.125 36.7814 17.7609 36.4489 17.1722L31.2498 7.96875C31.2498 7.96875 31.25 12.5184 31.25 16.2505C31.25 17.2861 30.4105 18.125 29.375 18.125C28.3395 18.125 27.5 17.2855 27.5 16.25V1.875Z" fill="#E73C3E"/>
<path fill-rule="evenodd" clip-rule="evenodd" d="M27.5 23.75C27.5 22.7145 28.3395 21.875 29.375 21.875H29.4183C30.0945 21.875 30.7182 22.2391 31.0508 22.8278L36.2498 32.0312C36.2498 32.0312 36.25 27.3454 36.25 23.7497C36.25 22.7142 37.0895 21.875 38.125 21.875C39.1605 21.875 40 22.7145 40 23.75V38.125C40 39.1605 39.1605 40 38.125 40H38.0814C37.4052 40 36.7814 39.6359 36.4489 39.0472L31.2498 29.8438C31.2498 29.8438 31.25 34.3934 31.25 38.1255C31.25 39.1611 30.4105 40 29.375 40C28.3395 40 27.5 39.1605 27.5 38.125V23.75Z" fill="#E73C3E"/>
<path fill-rule="evenodd" clip-rule="evenodd" d="M14.6883 27.1875C15.7238 27.1875 16.5633 28.027 16.5633 29.0625V34.0625C16.5633 35.4432 17.5008 36.875 19.0633 36.875C20.6258 36.875 21.5633 35.4432 21.5633 34.0625V29.0625C21.5633 28.027 22.4027 27.1875 23.4383 27.1875C24.4738 27.1875 25.3133 28.027 25.3133 29.0625V34.0625C25.3133 37.5143 22.515 40 19.0633 40C15.6115 40 12.8133 37.5143 12.8133 34.0625V29.0625C12.8133 28.027 13.6527 27.1875 14.6883 27.1875Z" fill="#E73C3E"/>
<path d="M11.25 34.8628C11.25 36.4546 10.6873 37.7087 9.56191 38.6253C8.44439 39.5418 6.88615 40 4.8872 40C3.42648 40 2.09946 39.7774 0.90612 39.3323C0.338606 39.1206 0 38.5561 0 37.9504C0 36.7873 1.2006 36.0254 2.30458 36.3915C2.5318 36.4669 2.74734 36.5321 2.95121 36.5872C3.76181 36.8043 4.36795 36.8508 5.03689 36.8508C5.83962 36.8508 6.45347 36.694 6.87844 36.3805C7.31129 36.0669 7.52771 35.6006 7.52771 34.9816C7.52771 34.6359 7.43327 34.3304 7.24439 34.0651C7.05552 33.7918 6.77613 33.5305 6.40625 33.2812C6.04424 33.032 5.43416 32.6961 4.30876 32.1495C3.2542 31.643 2.46327 31.1566 1.93599 30.6903C1.40871 30.224 0.987671 29.6813 0.672875 29.0623C0.35808 28.4433 0.200682 27.7197 0.200682 26.8916C0.200682 25.332 0.71616 24.106 1.74711 23.2136C2.78594 22.3212 4.21826 21.875 6.04407 21.875C6.94124 21.875 7.79512 21.9835 8.60572 22.2006C8.97681 22.299 9.35519 22.4156 9.74084 22.5504C10.5485 22.8327 10.9116 23.7469 10.5896 24.5396C10.2578 25.3564 9.32691 25.7322 8.49105 25.4518C8.20158 25.3547 7.93681 25.2759 7.69675 25.2154C7.09864 25.0627 6.67612 25 6.09375 25C5.4012 25 4.86998 25.1648 4.5001 25.4944C4.13021 25.824 3.94527 26.2542 3.94527 26.7848C3.94527 27.1144 4.02004 27.4038 4.16956 27.653C4.31909 27.8942 4.55519 28.1314 4.87785 28.3645C5.20839 28.5896 5.81585 28.9859 7.03568 29.5808C8.649 30.3687 9.75472 31.1606 10.3528 31.9565C10.9509 32.7444 11.25 33.7131 11.25 34.8628Z" fill="#E73C3E"/>
</svg>
