<svg version="1.2" baseProfile="tiny" xmlns="http://www.w3.org/2000/svg" viewBox="0 0 310 98"><switch><g><path fill-rule="evenodd" fill="#5DA729" d="M298.111 55.42h-2.746l-2.3 3.193V55.42h-2.354v7.986h2.353v-3.262l2.204 3.262h2.922l-3.123-4.12 3.044-3.866zm-19.654 0h2.353v7.995h-2.353V55.42zm-15.149 1.916h1.767v6.07h2.344v-6.07h1.767V55.42h-5.878v1.916zm-10.33 1.33a2.682 2.682 0 00-.56-.202 1.742 1.742 0 00-.463-.122c-.043-.026-.113-.035-.183-.044-.062-.026-.123-.035-.202-.061a1.032 1.032 0 01-.384-.21.546.546 0 01-.175-.394c.017-.043.017-.096.017-.14.018-.07.035-.113.044-.157a.621.621 0 01.236-.262c.122-.088.262-.123.464-.123.236.026.437.07.603.158.219.104.385.218.577.35.044.034.079.07.123.104.043.044.078.07.105.088h.105l.804-1.68c-.017-.017-.026-.017-.026-.017l-.035-.026c-.498-.341-.962-.551-1.4-.621a4.817 4.817 0 00-.979-.123h-.105c-.918.009-1.61.245-2.09.7a2.305 2.305 0 00-.718 1.714c0 .656.14 1.146.429 1.479.306.323.639.568.98.725.14.07.28.114.42.158.157.052.28.087.402.114.017.017.044.017.061.017a.197.197 0 00.061.009c.306.087.56.192.761.306.219.122.315.332.315.63v.14a.537.537 0 01-.061.157.514.514 0 01-.201.254c-.114.096-.263.131-.464.131h-.096c-.044-.026-.061-.026-.088-.026a2.217 2.217 0 01-.804-.306 4.568 4.568 0 01-.717-.516l-.105-.105a1.145 1.145 0 01-.105-.114h-.123l-1.05 1.706c.36.28.665.516.945.682.306.183.586.306.866.402.201.07.385.114.577.14.202.044.385.053.604.053l.105-.01c.805 0 1.504-.2 2.09-.62.621-.42.919-1.085.919-1.994-.018-.7-.167-1.208-.464-1.557-.324-.359-.647-.621-1.014-.788zm-16.26-3.246h2.345v7.995h-2.344V55.42z"/><path fill="#5DA729" d="M225.33 60.196c.027-.026.044-.026.044-.026.42-.158.761-.411 1.085-.761.341-.376.498-.901.498-1.6 0-.648-.14-1.13-.437-1.453a2.56 2.56 0 00-.962-.708 2.529 2.529 0 00-.857-.201 6.12 6.12 0 00-.508-.035h-3.428v7.994h2.361v-2.449l1.584 2.45h2.825l-2.248-3.193c.026-.018.044-.018.044-.018zm-.717-2.152v.132a1.19 1.19 0 01-.245.568c-.166.184-.437.263-.804.263h-.438V57.17h.438c.367.008.638.087.787.253a.98.98 0 01.262.551v.07z"/><path fill-rule="evenodd" fill="#5DA729" d="M208.59 60.126c0 .096 0 .193-.018.324-.017.122-.035.253-.061.385a1.746 1.746 0 01-.359.594c-.175.193-.42.289-.778.289-.368-.009-.621-.105-.787-.289a1.715 1.715 0 01-.342-.594 1.432 1.432 0 01-.078-.385c-.018-.14-.018-.236-.018-.324v-4.714h-2.353v4.758c.018 1.216.324 2.082.989 2.633.656.56 1.504.83 2.528.83l.104-.008c1.059 0 1.907-.28 2.546-.822.664-.569.98-1.444.98-2.633v-4.758h-2.353v4.714z"/><path fill="#5DA729" d="M190.03 55.184h-.123c-1.426.009-2.502.438-3.21 1.277-.726.849-1.067 1.828-1.067 2.948 0 1.128.358 2.117 1.084 2.956.744.84 1.81 1.268 3.193 1.268l.122-.008c1.443-.009 2.502-.438 3.21-1.269a4.388 4.388 0 001.085-2.947c-.018-1.12-.368-2.1-1.085-2.948-.726-.848-1.802-1.277-3.21-1.277zm1.407 5.79c-.297.36-.62.57-.997.665a1.796 1.796 0 01-.245.07c-.096.009-.166.009-.244.009-.097-.009-.175-.009-.263-.026-.079-.026-.166-.044-.245-.07-.358-.114-.665-.333-.962-.674-.297-.35-.437-.866-.437-1.54 0-.681.14-1.189.437-1.53.315-.35.621-.586.962-.682.096-.035.166-.061.263-.07.105-.026.183-.026.262-.026.096.009.157.009.236.026.096.026.166.035.245.052.376.114.7.333.997.674.315.35.464.866.464 1.548-.018.717-.175 1.233-.473 1.575z"/><path fill-rule="evenodd" fill="#5DA729" d="M170.84 57.336h1.748v6.07h2.362v-6.07h1.75V55.42h-5.86v1.916zm-60.344-12.508c.989-.288 2.143.289 2.992.717a11.103 11.103 0 010-8.011H0v11.738h107.925c0-2.012.14-3.587 2.571-4.444z"/><path fill-rule="evenodd" fill="#0061A3" d="M111.625 57.423c-1.706-1.294-3.29-3.148-3.709-5.44H0v11.45h124.508l-1.145-2.292c-6.447-.997-8.72-1.286-11.738-3.718zm3.017-24.333c-4.146-2.72-7.723-6.009-10.723-10.015H0v11.738h114.205l.437-1.723zM96.607 8.617H0v11.598h102.056c-2.44-3.446-4.155-7.452-5.45-11.598z"/><path fill="#0061A3" d="M155.261 21.212c-1.145-.288-2.291-.288-3.288-.288-1.006.997-1.863 1.863-2.72 3h-.578c0-1.435.14-2.292.28-3.577-.42-1.864-1.565-1.864-2.851-3.15-.438-2.86-3.726-3.577-3.289-6.725.28-1.435 2.003-.15 3.149-1.006 1.565-.569 2.86 2.291 4.146 0 .14-.14-.28-.569-.28-.997l.857-.289c.997-4.295-4.295-2.72-6.298-4.723.298-1.715-1.425-1.286-2.282-2.143-.438 0-.14-.717-.718-.717-.866.288-2.02.288-2.431 1.714-.14-.857-1.006-1.146-1.426-1.286-.14.717.717 1.286.28 2.292-2.003.149-3.149 1.723-3.866 3.149l-.14-.14c-.28 1.714-2.003 2.86-2.003 4.723.437.717 1.006-.569 1.723-.14-.866.429-1.286 1.006-1.723 1.714-.28.866-.28 1.575 0 2.292.848-.289 1.723-1.435 2.432-1.714-.298 1.434-1.146 2.142-2.003 3.288l-.14 2.143c-.866-.568-1.863-1.434-2.572-2.431-1.006-.578-1.443-1.863-2.3-3.01-3.857-4.722-9.586-1.145-14.012-1.574-5.59-1.005-10.881-2.86-14.878-7.154 0 1.434.437 2.571 1.146 4.006.577 2.003 2.142 3.577 3.866 4.723-1.286.288-2.16-.717-3.15-1.146v.28a13.707 13.707 0 003.15 4.872c1.285 1.714 3.568 1.146 4.994 2.143-.577.717-1.706.428-2.712.428 1.006 2.003 3.01 3.578 5.012 3.578.578.148 1.286-.569 1.426.288-.14 1.006-1.426.857-2.143.857.717 1.435 2.143 2.72 3.429 3.726 3.428.14 5.86 4.146 9.289 2.003 1.583 1.575 3.288-.717 5.011-.568 0 .289-.437.568-.437.717-2.143.717-4.277 1.714-4.854 4.006 0 1.863-1.863.717-2.72 1.006-2.16.14-3.15 2.292-3.866 4.295-1.006 3.437 2.002 6.437-.709 8.869-.866.428-1.723 0-2.44-.569.14 1.006.42 1.723 1.128 2.143.866.289 2.16-.14 2.572-.717 0 .568-.42.857-.718 1.434-1.565.717-2.851-.717-4.006-1.286 0 1.286.875 1.715 1.286 2.58.577.718-.857.43-.857.718 2.143 2.152 5.012 4.155 8.003 3.289 1.286-.289 2.143-1.855 2.869-3.01.28-2.86.28-6.008-1.286-8.44-1.146-1.434-1.146-3.437-1.583-5.011.437-.858 1.146-1.864 2.143-2.003.429 1.425 1.006 2.72 2.02 3.717.718 2.143 3.43 3.009 3.132 5.292-.997 2.291-3.132 4.294-2.852 6.726 1.723 2.003 3.15 4.583 3.569 7.443 1.286 0 .866 1.714 1.286 2.292 1.146.428 2.44 0 3.446 0-.577-2.292-2.44-3.29-3.446-5.152-.14-.429-.42-1.286 0-1.574.866.428 2.003 1.145 2.003 2.431 1.146-.14.866 1.574 1.146 2.292.577.568 1.285 1.714 2.142 1.285.298-.428.158-.568.158-.857.717-2.291-1.286-3.148-1.583-4.723-1.426-1.434-3.149-1.714-4.277-3.577-.718-.857.42-1.286 1.137-2.152 3.148-2.431 4.154-6.726 4.154-10.443 1.706-2.86 5.572-3.438 7.864-6.298 1.705-1.574 2.711-3.717 3.866-5.44l.42.428c2.151.14 3.865-2.58 5.588-3.866.28.429.718.857 1.146 1.575.42.717-.157 1.863.42 2.431.437.717-.28 1.286-.42 1.854.56 1.146 1.269 2.58 2.423 3.01.437-1.575.14-3.01.297-4.575v-.429c.28-2.151-2.002-3.288-1.863-5.44 1.706-1.714 3.866.149 5.572.568.437.289.297 1.006.297 1.435 1.566 0 2.852-.717 4.006-2.003-.437-.289-1.005-.569-1.425-.857-2.143-1.855-4.863-.14-7.138-1.855zm-41.196 6.15c.848-.14 1.426-1.286 2.143-.718-.42.577-1.286.577-2.143.717zm19.024-7.873c1.146.289 2.44.997 3.726 1.146-1.286 0-3.018-.428-3.726-1.146z"/><path fill-rule="evenodd" fill="#0061A3" d="M248.973 25.148h-15.01v9.587h5.327c.053 2.799-1.688 5.003-4.11 5.003-3.473 0-5.511-4.583-5.511-10.181 0-5.065 1.487-10.243 5.554-10.243 1.688 0 3.289 1.015 3.875 2.983l8.703-2.685c-1.505-6.788-5.852-12.385-12.928-12.385-10.688 0-14.895 11.256-14.895 22.39 0 12.622 5.615 21.806 15 21.806 9.14 0 13.977-8.886 13.977-21.272v-5.003h.018zM300 36.405c0-7.032-2.702-10.12-6.148-11.913-2.834-1.487-4.829-1.487-4.829-3.988 0-2.327 1.837-2.44 2.86-2.44 1.785 0 4.295.656 5.94 1.312V8.888c-2.17-1.075-5.126-1.661-7.794-1.661-6.332 0-10.644 5.422-10.644 14.528 0 9.114 5.186 11.02 7.495 12.026 1.645.77 3.447 1.487 3.447 3.753 0 1.25-.543 2.685-2.852 2.685-2.283 0-5.659-1.61-7.6-2.738v11.493c2.57 1.557 5.868 2.45 8.763 2.45 7.934 0 11.362-7.278 11.362-15.019z"/><path fill="#0061A3" d="M269.002 50.155h10.4l-9-41.686h-11.17l-9.061 41.686h10.408l1.024-6.079h6.376l1.023 6.079zm-5.956-16.496l1.74-10.601 1.759 10.6h-3.5zM194.2 22.822c0-5.895-2.081-14.353-11.082-14.353H170.83v41.686h10.164V37.236h2.125c8.957 0 11.082-8.458 11.082-14.414zm-12.087 3.577h-1.12v-7.085h1.12c.918 0 2.422.237 2.422 3.517 0 3.27-1.408 3.568-2.422 3.568z"/><path fill-rule="evenodd" fill="#0061A3" d="M198.61 50.155h17.799V38.067h-7.636V34.08h6.875V24.073h-6.875v-3.517h7.636V8.47h-17.8v41.686z"/><path fill="#EF7C15" d="M-.002 76.088h299.347v21.906H-.002z"/><g fill="#FFF"><path d="M44.508 85.192h6.19v-4.921h1.356v12.103h-1.356v-5.923h-6.19v5.923h-1.356V80.271h1.356v4.921zM58.11 84.66c1.189 0 2.175.431 2.962 1.295.68.745 1.02 1.635 1.02 2.669 0 1.206-.441 2.199-1.322 2.979-.744.661-1.64.993-2.686.993-.721 0-1.395-.183-2.022-.55a3.833 3.833 0 01-1.472-1.551 4.057 4.057 0 01-.46-1.933c0-1.1.413-2.043 1.24-2.829.757-.715 1.67-1.073 2.74-1.073zm-.009 1.17c-.862 0-1.549.325-2.057.976-.396.509-.594 1.103-.594 1.782 0 .87.264 1.566.79 2.093.496.496 1.108.745 1.835.745.887 0 1.59-.323 2.11-.967.39-.491.585-1.1.585-1.826 0-.852-.266-1.538-.798-2.058-.502-.496-1.126-.744-1.87-.744zM63.892 92.374V84.83h3.2c.982 0 1.668.16 2.058.478.414.35.62.837.62 1.463 0 .71-.328 1.233-.984 1.57.94.342 1.41.98 1.41 1.915 0 .846-.34 1.442-1.02 1.791-.425.218-1.004.328-1.738.328h-3.546zm1.294-4.3h1.712c1.046 0 1.569-.403 1.569-1.206 0-.722-.467-1.082-1.401-1.082h-1.88v2.288zm0 3.334h2.004c.568 0 .984-.08 1.25-.24.308-.19.462-.501.462-.94 0-.845-.603-1.267-1.81-1.267h-1.906v2.447zM77.733 84.829h1.295v7.545h-1.295v-1.046c-.71.846-1.576 1.268-2.598 1.268-1.123 0-2.037-.43-2.74-1.286-.597-.721-.895-1.628-.895-2.722 0-1.271.399-2.273 1.197-3.006a3.458 3.458 0 012.411-.93c1.04 0 1.916.416 2.625 1.25v-1.073zm-2.43.993c-.733 0-1.341.28-1.826.842-.437.509-.656 1.139-.656 1.889 0 .904.263 1.626.789 2.163.461.474 1.022.71 1.685.71.81 0 1.46-.314 1.95-.94.384-.492.577-1.121.577-1.889 0-.904-.264-1.6-.79-2.084-.496-.46-1.072-.691-1.729-.691zM85.314 92.374v-2.828h-.106l-2.802 2.828h-1.64l3.059-2.979c-.911-.018-1.572-.147-1.987-.39-.667-.39-1.002-1.006-1.002-1.844 0-.887.329-1.534.985-1.942.29-.178.627-.293 1.01-.346.22-.03.553-.044 1.003-.044h2.793v7.545h-1.313zm0-3.821v-2.705h-1.339c-.673 0-1.14.103-1.4.31-.284.219-.426.547-.426.985 0 .52.18.9.54 1.144.267.177.692.266 1.278.266h1.347zM93.516 92.374V84.83h3.201c.982 0 1.667.16 2.057.478.415.35.621.837.621 1.463 0 .71-.328 1.233-.984 1.57.94.342 1.41.98 1.41 1.915 0 .846-.34 1.442-1.02 1.791-.426.218-1.005.328-1.738.328h-3.547zm1.295-4.3h1.711c1.047 0 1.57-.403 1.57-1.206 0-.722-.468-1.082-1.401-1.082h-1.88v2.288zm0 3.334h2.004c.567 0 .984-.08 1.25-.24.308-.19.461-.501.461-.94 0-.845-.603-1.267-1.809-1.267h-1.906v2.447zM101.656 92.374V84.83h1.295v2.695h1.711c.94 0 1.634.147 2.084.443.62.414.93 1.068.93 1.96 0 .975-.36 1.662-1.08 2.057-.473.26-1.089.39-1.845.39h-3.095zm1.295-1.037h1.57c.638 0 1.105-.089 1.4-.266.349-.213.523-.585.523-1.117 0-.573-.206-.963-.62-1.17-.284-.143-.712-.214-1.286-.214h-1.587v2.767zm5.896 1.037V84.83h1.33v7.545h-1.33zM118.326 85.378v1.703c-.396-.444-.742-.745-1.037-.905a2.74 2.74 0 00-1.34-.345c-.803 0-1.46.297-1.968.895-.46.532-.691 1.167-.691 1.907 0 .775.248 1.432.745 1.977.496.537 1.128.807 1.897.807.592 0 1.135-.174 1.632-.523.212-.155.481-.42.807-.798v1.71c-.805.528-1.603.79-2.395.79-1.288 0-2.32-.47-3.094-1.41a3.874 3.874 0 01-.913-2.536c0-1.135.405-2.101 1.214-2.9.739-.726 1.674-1.09 2.802-1.09.828 0 1.608.24 2.341.718zM123.629 84.66c1.188 0 2.175.431 2.961 1.295.68.745 1.02 1.635 1.02 2.669 0 1.206-.44 2.199-1.321 2.979-.745.661-1.64.993-2.687.993-.72 0-1.395-.183-2.022-.55a3.833 3.833 0 01-1.472-1.551 4.057 4.057 0 01-.46-1.933c0-1.1.413-2.043 1.24-2.829.757-.715 1.67-1.073 2.74-1.073zm-.01 1.17c-.862 0-1.548.325-2.056.976-.397.509-.594 1.103-.594 1.782 0 .87.263 1.566.789 2.093.496.496 1.108.745 1.835.745.887 0 1.59-.323 2.11-.967.39-.491.586-1.1.586-1.826 0-.852-.266-1.538-.798-2.058-.503-.496-1.126-.744-1.871-.744zM130.5 92.374v-6.322h-2.18V84.83h5.674v1.223h-2.181v6.322H130.5zM140.946 84.829h1.294v7.545h-1.294v-1.046c-.71.846-1.576 1.268-2.598 1.268-1.124 0-2.037-.43-2.74-1.286-.597-.721-.896-1.628-.896-2.722 0-1.271.4-2.273 1.197-3.006a3.458 3.458 0 012.412-.93c1.04 0 1.916.416 2.625 1.25v-1.073zm-2.43.993c-.733 0-1.341.28-1.826.842-.437.509-.656 1.139-.656 1.889 0 .904.263 1.626.789 2.163.46.474 1.022.71 1.684.71.81 0 1.46-.314 1.951-.94.384-.492.577-1.121.577-1.889 0-.904-.264-1.6-.79-2.084-.496-.46-1.072-.691-1.729-.691zM149.112 92.374V84.83h3.201c.982 0 1.667.16 2.058.478.414.35.62.837.62 1.463 0 .71-.328 1.233-.984 1.57.94.342 1.41.98 1.41 1.915 0 .846-.34 1.442-1.02 1.791-.425.218-1.004.328-1.738.328h-3.547zm1.295-4.3h1.711c1.047 0 1.57-.403 1.57-1.206 0-.722-.467-1.082-1.401-1.082h-1.88v2.288zm0 3.334h2.004c.567 0 .984-.08 1.25-.24.308-.19.461-.501.461-.94 0-.845-.603-1.267-1.809-1.267h-1.906v2.447zM162.954 84.829h1.294v7.545h-1.294v-1.046c-.71.846-1.576 1.268-2.598 1.268-1.124 0-2.037-.43-2.74-1.286-.597-.721-.896-1.628-.896-2.722 0-1.271.4-2.273 1.197-3.006a3.458 3.458 0 012.412-.93c1.04 0 1.915.416 2.625 1.25v-1.073zm-2.43.993c-.733 0-1.341.28-1.826.842-.437.509-.656 1.139-.656 1.889 0 .904.263 1.626.789 2.163.46.474 1.022.71 1.684.71.81 0 1.46-.314 1.951-.94.384-.492.576-1.121.576-1.889 0-.904-.263-1.6-.789-2.084-.496-.46-1.073-.691-1.729-.691zM166.58 92.374V84.83h1.313v6.34h2.846v-6.34h1.286v6.34h2.846v-6.34h1.312v7.545h-9.603zM185.228 88.872h-5.88c.025.514.131.949.32 1.303a2.315 2.315 0 002.075 1.25c.638 0 1.173-.209 1.605-.629.207-.195.446-.514.718-.958l1.09.612c-.3.527-.611.931-.93 1.215-.698.62-1.54.931-2.527.931-1.206 0-2.164-.438-2.873-1.312-.562-.697-.843-1.575-.843-2.634 0-1.223.358-2.204 1.073-2.944.674-.697 1.534-1.046 2.58-1.046.947 0 1.747.296 2.404.887.791.71 1.188 1.741 1.188 3.094v.23zm-1.366-1.09a2.627 2.627 0 00-.434-1.056c-.444-.598-1.035-.895-1.774-.895-.774 0-1.392.333-1.853 1.002a2.446 2.446 0 00-.372.948h4.433zM187.028 92.374V84.83h4.69v1.205h-3.396v6.34h-1.294zM196.515 84.66c1.189 0 2.176.431 2.962 1.295.68.745 1.02 1.635 1.02 2.669 0 1.206-.441 2.199-1.321 2.979-.745.661-1.64.993-2.687.993-.721 0-1.395-.183-2.022-.55a3.833 3.833 0 01-1.472-1.551 4.057 4.057 0 01-.46-1.933c0-1.1.413-2.043 1.24-2.829.757-.715 1.67-1.073 2.74-1.073zm-.008 1.17c-.863 0-1.55.325-2.058.976-.396.509-.594 1.103-.594 1.782 0 .87.264 1.566.79 2.093.496.496 1.108.745 1.835.745.887 0 1.59-.323 2.11-.967.39-.491.586-1.1.586-1.826 0-.852-.266-1.538-.798-2.058-.503-.496-1.127-.744-1.871-.744zM210.277 84.66c1.188 0 2.175.431 2.962 1.295.68.745 1.02 1.635 1.02 2.669 0 1.206-.441 2.199-1.322 2.979-.745.661-1.64.993-2.687.993-.72 0-1.394-.183-2.021-.55a3.833 3.833 0 01-1.472-1.551 4.057 4.057 0 01-.461-1.933c0-1.1.414-2.043 1.241-2.829.756-.715 1.67-1.073 2.74-1.073zm-.009 1.17c-.863 0-1.549.325-2.057.976-.396.509-.594 1.103-.594 1.782 0 .87.263 1.566.79 2.093.496.496 1.107.745 1.835.745.886 0 1.59-.323 2.11-.967.39-.491.585-1.1.585-1.826 0-.852-.266-1.538-.798-2.058-.503-.496-1.126-.744-1.87-.744zM217.149 92.374v-6.322h-2.181V84.83h5.675v1.223h-2.182v6.322h-1.312zM227.727 92.374h-5.94v1.995h-1.242v-3.2h.328c.372 0 .71-.183 1.01-.55.373-.449.628-1.245.763-2.385.083-.715.149-1.85.196-3.405h5.293v6.34h.834v3.2h-1.242v-1.995zm-.922-1.206v-5.134h-2.758c-.017.266-.053.878-.106 1.836-.07 1.2-.269 2.08-.594 2.642-.13.226-.31.444-.54.656h3.998zM230.565 92.374V84.83h1.294v2.695h1.712c.94 0 1.634.147 2.083.443.621.414.931 1.068.931 1.96 0 .975-.36 1.662-1.081 2.057-.473.26-1.088.39-1.845.39h-3.094zm1.294-1.037h1.57c.638 0 1.105-.089 1.4-.266.35-.213.524-.585.524-1.117 0-.573-.207-.963-.62-1.17-.285-.143-.713-.214-1.286-.214h-1.588v2.767zm5.897 1.037V84.83h1.33v7.545h-1.33zM243.502 88.349l-2.75-3.52h1.58L244.3 87.4l1.968-2.571h1.605l-2.766 3.52 3.139 4.025h-1.561l-2.385-3.076-2.403 3.076h-1.614l3.219-4.025zM255.188 84.829h1.295v7.545h-1.295v-1.046c-.709.846-1.575 1.268-2.598 1.268-1.123 0-2.036-.43-2.74-1.286-.596-.721-.895-1.628-.895-2.722 0-1.271.399-2.273 1.197-3.006a3.458 3.458 0 012.412-.93c1.04 0 1.915.416 2.624 1.25v-1.073zm-2.43.993c-.732 0-1.34.28-1.826.842-.437.509-.656 1.139-.656 1.889 0 .904.263 1.626.79 2.163.46.474 1.022.71 1.684.71.81 0 1.46-.314 1.95-.94.385-.492.577-1.121.577-1.889 0-.904-.263-1.6-.79-2.084-.496-.46-1.072-.691-1.728-.691z"/></g></g></switch></svg>