<?xml version="1.0" encoding="UTF-8"?>
<svg xmlns="http://www.w3.org/2000/svg" xmlns:xlink="http://www.w3.org/1999/xlink" width="258pt" height="125pt" viewBox="0 0 258 125" version="1.1">
<g id="surface1">
<path style=" stroke:none;fill-rule:nonzero;fill:rgb(76.078431%,5.490196%,10.196078%);fill-opacity:1;" d="M 73.640625 83 C 76.554688 83.058594 79.441406 82.410156 82.050781 81.109375 C 81.277344 80.664062 80.554688 80.136719 79.890625 79.539062 C 78.523438 80.535156 76.863281 81.050781 75.171875 81 C 73.425781 81.066406 71.742188 80.375 70.550781 79.101562 C 69.300781 77.882812 68.617188 76.195312 68.671875 74.449219 C 68.671875 73.75 68.671875 50.230469 68.429688 50.589844 C 67.828125 47.058594 65.429688 45.269531 61.179688 45.269531 C 60.761719 45.269531 60.34375 45.292969 59.929688 45.339844 L 59.929688 70.898438 C 59.910156 76.210938 64.480469 83 73.640625 83 Z M 73.640625 83 "/>
<path style=" stroke:none;fill-rule:nonzero;fill:rgb(76.078431%,5.490196%,10.196078%);fill-opacity:1;" d="M 91.230469 83 L 91.230469 82.210938 C 89.960938 82.210938 86.578125 81.390625 86.589844 74.46875 C 86.589844 73.769531 86.589844 50.261719 86.351562 50.628906 C 85.738281 47.058594 83.351562 45.289062 79.089844 45.289062 C 78.621094 45.289062 78.371094 45.289062 77.851562 45.359375 L 77.851562 70.921875 C 77.808594 76.160156 82.28125 82.871094 91.230469 83 Z M 91.230469 83 "/>
<path style=" stroke:none;fill-rule:nonzero;fill:rgb(76.078431%,5.490196%,10.196078%);fill-opacity:1;" d="M 29.351562 80.378906 C 32.476562 82.527344 36.210938 83.609375 40 83.460938 C 44.226562 83.460938 47.558594 82.722656 50 81.25 C 54.570312 78.539062 56.851562 74.78125 56.859375 69.921875 C 56.976562 65.074219 54.433594 60.554688 50.230469 58.140625 L 38 52.628906 C 33.578125 50.628906 31.375 48.027344 31.378906 44.820312 C 31.300781 42.667969 32.28125 40.613281 34 39.320312 C 35.746094 38.066406 37.851562 37.417969 40 37.480469 C 42.140625 37.449219 44.253906 37.953125 46.148438 38.941406 L 46.148438 35.460938 C 44.144531 34.917969 42.078125 34.652344 40 34.671875 C 36.105469 34.53125 32.296875 35.839844 29.308594 38.339844 C 26.378906 40.867188 24.785156 44.613281 25 48.480469 C 25.046875 53.074219 27.480469 57.316406 31.421875 59.679688 L 42.980469 65.210938 C 47.070312 67.210938 49.128906 69.789062 49.121094 72.941406 C 49.144531 75.285156 47.96875 77.476562 46 78.75 C 44.082031 80.109375 41.773438 80.8125 39.421875 80.75 C 36.886719 80.777344 34.421875 79.945312 32.421875 78.390625 C 30.636719 77.175781 29.453125 75.257812 29.171875 73.121094 L 24.839844 73.121094 C 25.304688 76.050781 26.929688 78.667969 29.351562 80.378906 Z M 29.351562 80.378906 "/>
<path style=" stroke:none;fill-rule:nonzero;fill:rgb(76.078431%,5.490196%,10.196078%);fill-opacity:1;" d="M 105.511719 45.351562 C 102.601562 45.28125 99.714844 45.921875 97.109375 47.21875 C 97.878906 47.671875 98.597656 48.203125 99.261719 48.800781 C 100.636719 47.800781 102.300781 47.28125 104 47.320312 C 105.746094 47.261719 107.433594 47.957031 108.628906 49.230469 C 109.859375 50.457031 110.527344 52.136719 110.480469 53.871094 C 110.480469 54.578125 110.480469 78.101562 110.738281 77.738281 C 111.328125 81.273438 113.738281 83.046875 117.980469 83.058594 C 118.449219 83.058594 118.699219 83.058594 119.21875 82.988281 L 119.21875 57.441406 C 119.25 52.148438 114.671875 45.359375 105.511719 45.351562 Z M 105.511719 45.351562 "/>
<path style=" stroke:none;fill-rule:nonzero;fill:rgb(76.078431%,5.490196%,10.196078%);fill-opacity:1;" d="M 87.921875 45.339844 L 87.921875 46.121094 C 89.191406 46.121094 92.558594 46.941406 92.558594 53.851562 C 92.558594 54.550781 92.558594 78.078125 92.808594 77.71875 C 93.398438 81.25 95.808594 83.03125 100.050781 83.03125 C 100.472656 83.035156 100.890625 83.011719 101.308594 82.960938 L 101.308594 57.410156 C 101.339844 52.191406 96.871094 45.488281 87.921875 45.339844 Z M 87.921875 45.339844 "/>
<path style=" stroke:none;fill-rule:nonzero;fill:rgb(18.039216%,20.392157%,39.607843%);fill-opacity:1;" d="M 121.148438 44.808594 L 121.148438 45.601562 C 122.449219 45.601562 125.871094 46.449219 125.859375 53.460938 C 125.859375 54.160156 125.859375 78.03125 126.121094 77.671875 C 126.726562 81.261719 129.175781 83.0625 133.46875 83.070312 C 133.949219 83.070312 134.199219 83.070312 134.710938 83 L 134.710938 57.058594 C 134.761719 51.78125 130.230469 45 121.148438 44.808594 Z M 121.148438 44.808594 "/>
<path style=" stroke:none;fill-rule:nonzero;fill:rgb(18.039216%,20.392157%,39.607843%);fill-opacity:1;" d="M 175.921875 80.628906 C 178.164062 82.679688 181.132812 83.753906 184.167969 83.605469 C 187.207031 83.457031 190.058594 82.101562 192.089844 79.839844 L 192 76.640625 C 191.878906 76.851562 191.75 77.058594 191.621094 77.261719 C 190.675781 79.179688 188.710938 80.386719 186.570312 80.359375 C 183.730469 80.359375 182.308594 77.546875 182.308594 71.921875 C 182.308594 69.199219 182.929688 67.148438 184.140625 65.769531 C 185.394531 64.574219 186.835938 63.589844 188.410156 62.859375 C 189.679688 62.230469 190.886719 61.480469 192.011719 60.621094 L 192.011719 57.351562 C 190.902344 58.460938 189.558594 59.304688 188.078125 59.820312 L 178.328125 63.550781 C 174.960938 65.265625 172.882812 68.769531 173 72.550781 C 172.855469 75.523438 173.90625 78.433594 175.921875 80.628906 Z M 175.921875 80.628906 "/>
<path style=" stroke:none;fill-rule:nonzero;fill:rgb(18.039216%,20.392157%,39.607843%);fill-opacity:1;" d="M 139.058594 44.828125 C 135.886719 44.617188 132.730469 45.433594 130.058594 47.160156 C 130.789062 47.628906 131.460938 48.175781 132.058594 48.800781 L 132.28125 48.621094 C 133.738281 47.417969 135.582031 46.785156 137.46875 46.828125 C 139.234375 46.773438 140.9375 47.476562 142.148438 48.761719 C 143.410156 49.996094 144.097656 51.703125 144.050781 53.46875 C 144.050781 54.179688 144.050781 78.050781 144.300781 77.671875 C 144.90625 81.269531 147.355469 83.074219 151.648438 83.078125 C 152.140625 83.078125 152.378906 83.078125 152.921875 83.019531 L 152.921875 57.089844 C 153 51.738281 148.351562 44.828125 139.058594 44.828125 Z M 139.058594 44.828125 "/>
<path style=" stroke:none;fill-rule:nonzero;fill:rgb(18.039216%,20.392157%,39.607843%);fill-opacity:1;" d="M 202.058594 57.628906 C 202.058594 52.28125 197.429688 45.390625 188.128906 45.359375 C 185.105469 45.289062 182.109375 45.976562 179.421875 47.359375 C 177.953125 48.136719 176.726562 49.300781 175.878906 50.730469 L 180 50.730469 C 180.355469 50.121094 180.824219 49.585938 181.378906 49.148438 C 182.835938 47.945312 184.679688 47.308594 186.570312 47.359375 C 188.339844 47.300781 190.050781 48.007812 191.261719 49.300781 C 192.523438 50.535156 193.214844 52.234375 193.171875 54 C 193.171875 54.699219 193.171875 78.570312 193.429688 78.199219 C 194.03125 81.800781 196.429688 83.589844 200.761719 83.609375 C 201.179688 83.609375 201.601562 83.582031 202.019531 83.53125 Z M 202.058594 57.628906 "/>
<path style=" stroke:none;fill-rule:nonzero;fill:rgb(18.039216%,20.392157%,39.607843%);fill-opacity:1;" d="M 229.558594 46.910156 C 226.875 45.53125 223.886719 44.84375 220.871094 44.910156 C 211.570312 44.910156 206.871094 51.789062 206.871094 57.140625 L 206.871094 83.070312 C 207.410156 83.070312 207.660156 83.148438 208.140625 83.148438 C 212.433594 83.148438 214.890625 81.351562 215.511719 77.761719 C 215.710938 78.121094 215.800781 54.261719 215.828125 53.550781 C 215.804688 51.792969 216.484375 50.097656 217.722656 48.847656 C 218.960938 47.597656 220.652344 46.898438 222.410156 46.910156 C 224.296875 46.867188 226.132812 47.511719 227.578125 48.71875 C 228.152344 49.148438 228.632812 49.6875 229 50.300781 L 233.148438 50.300781 C 232.269531 48.875 231.03125 47.707031 229.558594 46.910156 Z M 229.558594 46.910156 "/>
<path style=" stroke:none;fill-rule:nonzero;fill:rgb(18.039216%,20.392157%,39.607843%);fill-opacity:1;" d="M 156.460938 44.828125 C 153.503906 44.769531 150.574219 45.429688 147.929688 46.75 C 148.707031 47.210938 149.441406 47.742188 150.121094 48.339844 C 151.507812 47.332031 153.183594 46.804688 154.898438 46.839844 C 156.6875 46.789062 158.40625 47.519531 159.609375 48.839844 C 160.871094 50.070312 161.554688 51.777344 161.488281 53.539062 C 161.488281 54.25 161.488281 78.121094 161.75 77.738281 C 162.351562 81.339844 164.796875 83.140625 169.089844 83.140625 C 169.511719 83.140625 169.933594 83.117188 170.351562 83.070312 L 170.351562 57.140625 C 170.390625 51.75 165.738281 44.828125 156.460938 44.828125 Z M 156.460938 44.828125 "/>
<path style=" stroke:none;fill-rule:nonzero;fill:rgb(76.078431%,5.490196%,10.196078%);fill-opacity:1;" d="M 188.238281 26.679688 C 199.980469 23.339844 205.679688 16.871094 216.488281 13.941406 C 218.632812 13.292969 220.898438 13.144531 223.109375 13.511719 C 224.726562 14.03125 226.296875 14.679688 227.808594 15.449219 L 218.75 9.160156 C 215.628906 7 211.691406 6 206.53125 7.308594 C 194.898438 10.191406 188.851562 16.890625 176.160156 20.191406 C 142.210938 29 112.621094 20 78.578125 5.929688 L 78.519531 6 C 118.460938 23.171875 149.929688 37.621094 188.238281 26.679688 Z M 188.238281 26.679688 "/>
<path style=" stroke:none;fill-rule:nonzero;fill:rgb(18.039216%,20.392157%,39.607843%);fill-opacity:1;" d="M 177.121094 15.410156 C 185.769531 12.78125 190.179688 8.839844 198.550781 6.339844 C 200.234375 5.8125 201.988281 5.558594 203.75 5.578125 C 204.953125 5.683594 206.140625 5.925781 207.289062 6.300781 L 200.519531 3.429688 C 198.160156 2.429688 195.121094 2.199219 191.039062 3.371094 C 182.039062 5.949219 177.511719 10.121094 168.21875 12.851562 C 144.460938 19.851562 123.359375 17.269531 98.371094 12.441406 C 127.660156 18.46875 150.308594 23.539062 177.121094 15.410156 Z M 177.121094 15.410156 "/>
<path style=" stroke:none;fill-rule:nonzero;fill:rgb(18.039216%,20.392157%,39.607843%);fill-opacity:1;" d="M 52.890625 103.121094 L 54.75 103.121094 L 54.75 115.808594 L 52.890625 115.808594 Z M 52.890625 103.121094 "/>
<path style=" stroke:none;fill-rule:nonzero;fill:rgb(18.039216%,20.392157%,39.607843%);fill-opacity:1;" d="M 50.390625 111.910156 C 50.390625 109.429688 48.539062 108.109375 45.03125 108.109375 C 44.589844 108.109375 44.089844 108.109375 43.488281 108.199219 L 43.140625 108.199219 L 43.140625 103.089844 L 41.289062 103.089844 L 41.289062 115.789062 L 45.058594 115.789062 C 48.550781 115.820312 50.390625 114.460938 50.390625 111.910156 Z M 43.140625 114.488281 L 43.140625 109.589844 L 43.429688 109.589844 C 43.953125 109.53125 44.476562 109.5 45 109.5 C 47.390625 109.5 48.511719 110.289062 48.511719 112 C 48.511719 113.710938 47.390625 114.519531 45 114.519531 Z M 43.140625 114.488281 "/>
<path style=" stroke:none;fill-rule:nonzero;fill:rgb(18.039216%,20.392157%,39.607843%);fill-opacity:1;" d="M 68.078125 103.121094 L 59.789062 103.121094 L 59.789062 115.820312 L 61.640625 115.820312 L 61.640625 104.679688 L 67.539062 104.679688 Z M 68.078125 103.121094 "/>
<path style=" stroke:none;fill-rule:nonzero;fill:rgb(18.039216%,20.392157%,39.607843%);fill-opacity:1;" d="M 77.148438 102.78125 C 73.570312 102.78125 71.070312 105.53125 71.070312 109.460938 C 71.070312 113.390625 73.558594 116.101562 77.121094 116.101562 C 80.679688 116.101562 83.191406 113.371094 83.191406 109.460938 C 83.191406 105.550781 80.648438 102.78125 77.148438 102.78125 Z M 77.148438 114.691406 C 74.691406 114.691406 73.039062 112.578125 73.039062 109.460938 C 73.039062 106.339844 74.699219 104.199219 77.179688 104.199219 C 79.660156 104.199219 81.28125 106.308594 81.28125 109.460938 C 81.28125 112.609375 79.589844 114.691406 77.121094 114.691406 Z M 77.148438 114.691406 "/>
<path style=" stroke:none;fill-rule:nonzero;fill:rgb(18.039216%,20.392157%,39.607843%);fill-opacity:1;" d="M 99.558594 120.441406 L 99.558594 114.441406 L 97.660156 114.441406 L 97.660156 103.121094 L 91 103.121094 C 90 108.859375 89 111.800781 87 114.308594 L 86.898438 114.429688 L 86.238281 114.429688 L 86.238281 120.429688 L 87.949219 120.429688 L 87.949219 115.808594 L 97.871094 115.808594 L 97.871094 120.429688 Z M 95.800781 114.441406 L 89.160156 114.441406 L 89.160156 113.859375 C 90.792969 111.082031 91.816406 107.992188 92.160156 104.789062 L 92.160156 104.519531 L 95.800781 104.519531 Z M 95.800781 114.441406 "/>
<path style=" stroke:none;fill-rule:nonzero;fill:rgb(18.039216%,20.392157%,39.607843%);fill-opacity:1;" d="M 114.171875 115.820312 L 114.171875 103.121094 L 112.308594 103.121094 L 112.308594 108.261719 L 105.558594 108.261719 L 105.558594 103.121094 L 103.699219 103.121094 L 103.699219 115.820312 L 105.558594 115.820312 L 105.558594 109.78125 L 112.308594 109.78125 L 112.308594 115.820312 Z M 114.171875 115.820312 "/>
<path style=" stroke:none;fill-rule:nonzero;fill:rgb(18.039216%,20.392157%,39.607843%);fill-opacity:1;" d="M 128.328125 111.910156 C 128.328125 109.429688 126.46875 108.109375 122.960938 108.109375 C 122.535156 108.109375 122.023438 108.140625 121.429688 108.199219 L 121.070312 108.199219 L 121.070312 103.089844 L 119.21875 103.089844 L 119.21875 115.789062 L 123 115.789062 C 126.480469 115.820312 128.328125 114.460938 128.328125 111.910156 Z M 121.070312 114.488281 L 121.070312 109.589844 L 121.359375 109.589844 C 121.882812 109.53125 122.40625 109.5 122.929688 109.5 C 125.328125 109.5 126.441406 110.289062 126.441406 112 C 126.441406 113.710938 125.328125 114.519531 122.929688 114.519531 Z M 121.070312 114.488281 "/>
<path style=" stroke:none;fill-rule:nonzero;fill:rgb(18.039216%,20.392157%,39.607843%);fill-opacity:1;" d="M 130.820312 103.121094 L 132.679688 103.121094 L 132.679688 115.808594 L 130.820312 115.808594 Z M 130.820312 103.121094 "/>
<path style=" stroke:none;fill-rule:nonzero;fill:rgb(18.039216%,20.392157%,39.607843%);fill-opacity:1;" d="M 143.511719 114.710938 C 142.269531 114.742188 141.074219 114.246094 140.214844 113.351562 C 139.355469 112.453125 138.914062 111.238281 139 110 L 139 109.679688 L 147.671875 109.679688 L 147.671875 109.378906 C 147.671875 105.238281 145.671875 102.761719 142.449219 102.761719 C 139.230469 102.761719 137.089844 105.410156 137.089844 109.351562 C 137.089844 112.601562 138.710938 116.078125 143.28125 116.078125 C 144.675781 116.09375 146.054688 115.75 147.28125 115.078125 L 146.769531 113.929688 C 145.761719 114.449219 144.644531 114.71875 143.511719 114.710938 Z M 139 108.148438 C 139 105.78125 140.449219 104.148438 142.449219 104.148438 C 144.671875 104.148438 145.699219 106.148438 145.730469 108.148438 L 145.730469 108.480469 L 139 108.480469 Z M 139 108.148438 "/>
<path style=" stroke:none;fill-rule:nonzero;fill:rgb(18.039216%,20.392157%,39.607843%);fill-opacity:1;" d="M 168.640625 103.121094 L 157.761719 103.121094 L 157.761719 104.589844 L 161.988281 104.589844 L 161.988281 115.820312 L 163.851562 115.820312 L 163.851562 104.589844 L 168.121094 104.589844 Z M 168.640625 103.121094 "/>
<path style=" stroke:none;fill-rule:nonzero;fill:rgb(18.039216%,20.392157%,39.607843%);fill-opacity:1;" d="M 183.160156 103.121094 L 181.230469 103.121094 L 177.789062 113.46875 L 177.289062 113.46875 L 177.199219 113.28125 L 172.878906 103.121094 L 170.878906 103.121094 L 176.699219 116.121094 L 176.699219 116.230469 C 175.699219 119.5 174.300781 121.03125 172.300781 121.03125 C 171.714844 121.027344 171.132812 120.921875 170.578125 120.71875 L 170.160156 122.101562 C 170.863281 122.359375 171.609375 122.484375 172.359375 122.46875 C 174.359375 122.46875 176.359375 122.03125 178.28125 116.839844 Z M 183.160156 103.121094 "/>
<path style=" stroke:none;fill-rule:nonzero;fill:rgb(18.039216%,20.392157%,39.607843%);fill-opacity:1;" d="M 191.058594 102.78125 C 189.59375 102.796875 188.140625 103.042969 186.75 103.511719 L 186.75 122.511719 L 188.601562 122.511719 L 188.601562 115.511719 L 189.039062 115.679688 C 189.730469 115.945312 190.460938 116.078125 191.199219 116.078125 C 195.109375 116.078125 197.730469 113.390625 197.730469 109.378906 C 197.730469 105.199219 195.300781 102.78125 191.058594 102.78125 Z M 191.058594 114.628906 C 190.261719 114.644531 189.476562 114.472656 188.761719 114.121094 L 188.570312 114.03125 L 188.570312 104.621094 L 188.808594 104.550781 C 189.5 104.335938 190.21875 104.230469 190.941406 104.230469 C 193.941406 104.230469 195.761719 106.148438 195.761719 109.371094 C 195.761719 112.589844 194 114.628906 191.089844 114.628906 Z M 191.058594 114.628906 "/>
<path style=" stroke:none;fill-rule:nonzero;fill:rgb(18.039216%,20.392157%,39.607843%);fill-opacity:1;" d="M 213.640625 103.121094 L 215.5 103.121094 L 215.5 115.808594 L 213.640625 115.808594 Z M 213.640625 103.121094 "/>
<path style=" stroke:none;fill-rule:nonzero;fill:rgb(18.039216%,20.392157%,39.607843%);fill-opacity:1;" d="M 211.148438 111.910156 C 211.148438 109.429688 209.289062 108.109375 205.78125 108.109375 C 205.347656 108.109375 204.835938 108.140625 204.25 108.199219 L 203.898438 108.199219 L 203.898438 103.089844 L 202 103.089844 L 202 115.789062 L 205.769531 115.789062 C 209.300781 115.820312 211.148438 114.460938 211.148438 111.910156 Z M 203.898438 114.488281 L 203.898438 109.589844 L 204.179688 109.589844 C 204.703125 109.53125 205.226562 109.5 205.75 109.5 C 208.140625 109.5 209.261719 110.289062 209.261719 112 C 209.261719 113.710938 208.140625 114.519531 205.75 114.519531 Z M 203.898438 114.488281 "/>
<path style=" stroke:none;fill-rule:nonzero;fill:rgb(18.039216%,20.392157%,39.607843%);fill-opacity:1;" d="M 33.320312 106.628906 C 32.898438 106.519531 32.699219 106.480469 32.25 106.378906 L 33.25 105.921875 C 34.632812 105.242188 35.484375 103.808594 35.421875 102.269531 C 35.421875 100.140625 33.988281 97.878906 29.96875 97.878906 L 25.601562 97.878906 L 25.601562 115.820312 L 30.53125 115.820312 C 34.300781 115.820312 36.640625 113.898438 36.640625 110.820312 C 36.683594 108.808594 35.289062 107.046875 33.320312 106.628906 Z M 27.480469 99.320312 L 29.769531 99.320312 C 32.179688 99.320312 33.558594 100.519531 33.558594 102.601562 C 33.558594 104.679688 32.121094 105.941406 29.710938 105.941406 L 27.480469 105.941406 Z M 30.390625 114.378906 L 27.480469 114.378906 L 27.480469 107.378906 L 30.679688 107.378906 C 33.121094 107.378906 34.679688 108.738281 34.679688 110.839844 C 34.699219 112.449219 34 114.378906 30.390625 114.378906 Z M 30.390625 114.378906 "/>
</g>
</svg>
