<svg width="146" height="40" viewBox="0 0 146 40" fill="none" xmlns="http://www.w3.org/2000/svg">
<path d="M52.6281 19.0673C52.9862 18.5133 53.1686 17.8985 53.1686 17.2161L53.1619 12.4259V12.1286C53.0985 11.2734 52.7091 10.4753 52.0741 9.89902C51.4509 9.30905 50.6215 8.98651 49.7635 9.00043H46.588V19.0673H52.6281ZM50.5134 11.5813C50.7296 11.784 50.8512 12.034 50.8715 12.3313V12.4259L50.885 17.2228C50.8832 17.5263 50.7614 17.8167 50.5462 18.0306C50.331 18.2446 50.0399 18.3647 49.7364 18.3646H48.8379V11.2908H49.7432C50.0472 11.2841 50.304 11.3854 50.5134 11.5813ZM53.3848 21.4793C53.3438 20.926 53.165 20.3918 52.8646 19.9254H46.6015V29.9855H49.9932C50.9323 29.9855 51.7295 29.6477 52.3917 28.9855C53.0538 28.3099 53.3848 27.5059 53.3916 26.5668L53.3848 21.7698C53.3984 21.682 53.3848 21.5739 53.3848 21.4793ZM51.1147 26.5735C51.1147 26.8978 50.9931 27.1681 50.7769 27.3843C50.554 27.6073 50.2905 27.7221 49.9932 27.7221H48.8649V20.6415H49.9999C50.284 20.644 50.5568 20.753 50.7645 20.9469C50.9721 21.1408 51.0995 21.4055 51.1215 21.6887L51.1282 21.7833L51.1147 26.5668V26.5735ZM64.7827 19.0403H67.0461V11.2841H69.0729L69.1 9.00043L62.5329 9.00719V11.2908L64.7759 11.2841L64.7827 19.0403ZM64.7827 19.9118V29.9922H67.0325L67.0461 19.9118H64.7827ZM60.9113 19.0403V18.3579H57.2832V11.2841L60.8978 11.2908L60.9046 9.00719L55.0334 9.00043V19.0403H60.9113ZM57.2967 20.6348H60.9046V19.9118H55.0266V29.9922H60.9046L60.9113 27.7221L57.29 27.7086L57.2967 20.6348Z" fill="white"/>
<path d="M95.9904 19.0409H98.2672V11.2847H100.308V9.00103H93.7338L93.727 11.2847H95.9971L95.9904 19.0409ZM95.9904 19.9124V29.9928H98.2672V19.9124H95.9904ZM92.8622 19.0409V18.3585H89.2138V11.2847H92.8622L92.869 9.00103H86.9234V19.0409H92.8622ZM86.9234 19.9124V29.9928H89.2071L89.2206 20.6354H92.8757V19.9124H86.9234ZM80.8766 19.0409L80.8833 12.4265C80.8833 12.1089 81.0049 11.8387 81.2211 11.6157C81.4441 11.3928 81.7143 11.2779 82.0116 11.2779C82.2994 11.2786 82.5764 11.3873 82.7878 11.5825C82.9992 11.7777 83.1297 12.0451 83.1534 12.3319L83.1602 12.4332V19.0544H85.41V12.4332C85.4195 11.9594 85.3281 11.4891 85.1417 11.0534C84.9553 10.6177 84.6783 10.2267 84.329 9.90637C83.7152 9.31805 82.8956 8.99312 82.0454 9.00103C81.113 9.00103 80.3158 9.33884 79.6672 10.001C79.3458 10.3188 79.0911 10.6978 78.9182 11.1154C78.7454 11.5331 78.6577 11.9812 78.6605 12.4332V19.0409H80.8901H80.8766ZM83.1534 19.9124L83.1399 26.5741C83.1399 26.8917 83.0183 27.1687 82.8021 27.3849C82.5791 27.6078 82.3156 27.7227 82.0116 27.7227C81.8684 27.726 81.726 27.7009 81.5926 27.6487C81.4592 27.5965 81.3375 27.5183 81.2346 27.4187C81.0249 27.2249 80.8948 26.96 80.8698 26.6755L80.863 26.5741L80.8698 19.9124H78.6335L78.6267 26.5741V26.8782C78.701 27.7565 79.0591 28.4997 79.7077 29.1077C80.3274 29.6938 81.152 30.0139 82.0049 29.9996C82.9372 29.9996 83.7277 29.6618 84.3831 28.9996C85.0384 28.324 85.3762 27.52 85.383 26.5741L85.3898 19.9124H83.1534ZM71.6002 19.0409H75.3026L74.073 18.0139C73.3465 17.355 72.9054 16.4389 72.8433 15.46C72.8298 15.2911 72.8163 15.1222 72.8163 14.9398L72.8366 12.4265C72.8366 12.1089 72.9514 11.8387 73.1744 11.6157C73.3763 11.4057 73.6531 11.2842 73.9444 11.2779C74.2356 11.2716 74.5175 11.3809 74.7283 11.5819C74.9445 11.7846 75.0661 12.0346 75.0864 12.3319L75.0932 12.4265V14.021H77.3498V12.1292C77.2934 11.2751 76.9084 10.476 76.2755 9.89962C75.6589 9.31211 74.8367 8.98954 73.9851 9.00103C73.0528 9.00103 72.2623 9.33884 71.6002 10.001C71.2795 10.3169 71.0247 10.6934 70.8507 11.1086C70.6768 11.5239 70.587 11.9695 70.5867 12.4197V15.6154C70.5732 15.8789 70.5867 16.1289 70.6002 16.3654C70.6813 17.4329 71.0124 18.3247 71.6002 19.0409ZM76.2553 19.9124H72.5393L73.8365 20.9867C74.5534 21.6491 74.9826 22.5657 75.0324 23.5406C75.0459 23.7095 75.0391 24.0811 75.0459 24.0676L75.0594 26.5741C75.0459 26.8917 74.9378 27.1687 74.7081 27.3849C74.4783 27.6078 74.2216 27.7227 73.9108 27.7227C73.6068 27.7227 73.3568 27.6281 73.1406 27.4187C72.9308 27.2264 72.8047 26.9596 72.7893 26.6755L72.7825 26.5741L72.8028 24.9797H70.5529V26.5741C70.5417 27.0475 70.6317 27.5179 70.817 27.9537C71.0022 28.3894 71.2785 28.7806 71.6272 29.101C72.2421 29.6868 73.0616 30.0093 73.9108 29.9996C74.3568 30.0063 74.7994 29.921 75.2109 29.749C75.6225 29.5769 75.9941 29.3218 76.3025 28.9996C76.9647 28.324 77.2957 27.52 77.316 26.5809V23.3852C77.3227 23.1284 77.316 22.8717 77.3025 22.642C77.2433 21.6459 76.8775 20.6925 76.2553 19.9124ZM40.501 23.3784V15.4803L44.4737 19.4665L40.501 23.3784ZM105.165 23.4257V15.5411L101.199 19.48L105.165 23.4257Z" fill="#FCC42C"/>
</svg>
