<svg width="146" height="40" viewBox="0 0 146 40" fill="none" xmlns="http://www.w3.org/2000/svg">
<g clip-path="url(#clip0_1747_85228)">
<path d="M38.6591 17.8143H41.7733V22.988H43.7548V17.8143H46.8332V16.0898H38.6591V17.8143Z" fill="white"/>
<path d="M32.2285 16.0898C31.7096 16.0898 31.2663 16.1548 30.9005 16.2844C30.5357 16.4134 30.2403 16.5971 30.0158 16.8334C29.7913 17.0707 29.6279 17.3577 29.5252 17.6961C29.422 18.0336 29.3711 18.4113 29.3711 18.8278V20.2496C29.3711 20.6661 29.422 21.0442 29.5252 21.3818C29.6275 21.7197 29.7909 22.0072 30.0158 22.2435C30.2403 22.4808 30.5357 22.6644 30.9005 22.7935C31.2663 22.923 31.7091 22.988 32.2285 22.988H37.7171V21.1973H32.4017C32.0107 21.1973 31.7379 21.1131 31.5838 20.9461C31.4301 20.7786 31.3535 20.4894 31.3535 20.0795V18.9229C31.3535 18.4994 31.4319 18.209 31.5896 18.0511C31.7463 17.8936 32.0177 17.8134 32.4021 17.8134H37.7175V16.0898H32.2285Z" fill="white"/>
<path d="M63.425 17.8145H66.5389V22.9882H68.5204V17.8145H71.5988V16.0901H63.425V17.8145Z" fill="white"/>
<path d="M109.437 17.8145H112.551V22.9882H114.532V17.8145H117.611V16.0901H109.437V17.8145Z" fill="white"/>
<path d="M103.203 16.0901C102.684 16.0901 102.241 16.1551 101.875 16.2846C101.511 16.4137 101.215 16.5973 100.991 16.8337C100.766 17.0709 100.603 17.3579 100.5 17.6963C100.397 18.0339 100.346 18.4116 100.346 18.8281V20.2498C100.346 20.6663 100.397 21.0444 100.5 21.382C100.602 21.72 100.766 22.0074 100.991 22.2438C101.215 22.481 101.511 22.6646 101.875 22.7937C102.241 22.9233 102.684 22.9882 103.203 22.9882H108.692V21.1975H103.377C102.986 21.1975 102.713 21.1133 102.559 20.9463C102.405 20.7788 102.328 20.4897 102.328 20.0797V18.9231C102.328 18.4997 102.407 18.2092 102.564 18.0513C102.721 17.8939 102.993 17.8136 103.377 17.8136H108.692V16.0901H103.203Z" fill="white"/>
<path d="M49.9644 22.9873V16.1118H51.9397V22.9877H49.9644V22.9873Z" fill="white"/>
<path d="M74.6017 21.1844H80.6136V22.9695H72.6082L72.6237 16.0984L80.5826 16.094L80.5901 17.7844L74.6012 17.8128V18.8045H77.8514V20.2023L74.599 20.1966L74.6017 21.1844Z" fill="white"/>
<path d="M133.898 21.1844H139.91V22.9695H131.904L131.92 16.0984L139.879 16.094L139.886 17.7844L133.897 17.8128V18.8045H137.148V20.2023L133.895 20.1966L133.898 21.1844Z" fill="white"/>
<path d="M83.733 20.499V22.9875H81.7577L81.7719 16.1116H87.4827C87.9175 16.1116 88.285 16.1622 88.5853 16.2625C88.8855 16.3632 89.1286 16.5098 89.3141 16.7016C89.4996 16.894 89.6338 17.1251 89.7171 17.396C89.7999 17.6668 89.8419 17.9721 89.8419 18.3122V18.8033C89.8419 19.137 89.8003 19.4361 89.7171 19.7004C89.6338 19.9647 89.5014 20.1902 89.319 20.3755C89.137 20.5613 88.9019 20.7048 88.614 20.8051C88.3262 20.9059 87.9746 20.956 87.5593 20.956H87.3578C87.2617 20.956 87.1041 20.9569 87.1041 20.9569L87.1054 21.0127C87.1882 21.0882 89.969 22.9112 89.969 22.9112V22.9866H87.3968L83.733 20.499ZM83.7286 17.8308L83.733 19.4933H87.1276C87.3897 19.4933 87.5766 19.4431 87.6886 19.3424C87.8002 19.2416 87.8564 19.0497 87.8564 18.7662V18.5303C87.8564 18.266 87.8002 18.0833 87.6886 17.9825C87.5766 17.8818 87.3897 17.8316 87.1276 17.8316H83.7286V17.8308Z" fill="white"/>
<path d="M118.355 22.9873V16.1118H120.331V22.9877H118.355V22.9873Z" fill="white"/>
<path d="M128.939 16.1118H131.231V16.1873L127.619 22.9511L124.663 22.9576L121.076 16.1873V16.1118H123.407L125.977 21.2781H126.351L128.939 16.1118Z" fill="white"/>
<path d="M100.194 22.9583H93.5382L94.5881 21.1859H97.1772L95.4507 18.2704H95.1965L92.4201 22.9583H90.4536L94.4938 16.075H96.1494L100.194 22.9583Z" fill="white"/>
<path d="M60.4774 21.1979H60.2582L56.5116 16.0774H53.6688V22.9577H55.6185V17.8646H55.8337L59.5196 22.9577H62.4337V16.0774H60.4774V21.1979Z" fill="white"/>
<path d="M21.0035 24.8378L16.9332 28.6635C16.4562 29.1121 15.6747 29.1121 15.1969 28.6635L6.84536 20.8149C6.36877 20.3663 6.36877 19.6323 6.84536 19.1836L9.14776 17.0212H11.2096C13.5343 17.0212 14.598 16.5014 14.9702 15.162H11.521H11.125L15.1969 11.3362C15.6747 10.8876 16.4562 10.8876 16.9332 11.3362L21.0039 15.162H18.8781C15.8428 15.162 14.9532 16.0417 14.9532 18.4816V21.5177C14.9532 23.958 15.8428 24.8381 18.8781 24.8381H21.0035V24.8378Z" fill="white"/>
<path d="M25.2839 19.1833L22.9815 17.02H18.9841C17.5798 17.02 17.2324 17.4036 17.2324 18.595V21.4333C17.2324 22.6384 17.5798 22.9934 18.9979 22.9934H22.9665L25.2839 20.8153C25.7613 20.3667 25.7613 19.6323 25.2839 19.1833ZM21.0804 21.1802H20.5508V19.555H21.0804V21.1802ZM21.0804 19.1216H20.5508V18.6365H21.0804V19.1216Z" fill="white"/>
</g>
<defs>
<clipPath id="clip0_1747_85228">
<rect width="134" height="18" fill="white" transform="translate(6 11)"/>
</clipPath>
</defs>
</svg>
