<svg width="146" height="40" viewBox="0 0 146 40" fill="none" xmlns="http://www.w3.org/2000/svg">
<path fill-rule="evenodd" clip-rule="evenodd" d="M37.9278 16.2943L23.0019 19.8404V16.5426L39.6031 12.5L37.9278 16.2943ZM23.0002 23.6703L35.2989 22.0746L36.7838 18.6703L23.0002 20.4788V23.6703ZM23.0002 27.4999H32.9762L34.4231 24.3084H23.0002V27.4999Z" fill="#00B8FF"/>
<path d="M46.8736 21.5074H50.1482L51.2524 19.1315H46.8736V17.4648H51.9759L53.1562 14.9471V14.9116H43.6752V25.8336H53.1562V23.245H46.8736V21.5074Z" fill="white"/>
<path d="M87.7685 15.94C86.8927 15.2662 85.7123 14.9116 84.2274 14.9116H79.2013V25.7981H82.4378V22.6776H84.037C85.56 22.6776 86.7404 22.323 87.6923 21.6492C88.6061 20.9754 89.0631 19.9825 89.0631 18.7414C89.1011 17.5712 88.6442 16.6137 87.7685 15.94ZM85.3316 19.9471C84.9889 20.1953 84.532 20.3372 83.9608 20.3372H82.4378V17.4648H83.9608C84.5701 17.4648 85.027 17.5712 85.3316 17.8194C85.6743 18.0676 85.8266 18.4223 85.8266 18.8833C85.8266 19.3442 85.6743 19.6989 85.3316 19.9471Z" fill="white"/>
<path d="M93.4402 14.9116H90.2037V25.8336H97.4001L98.5805 23.174H93.4402V14.9116Z" fill="white"/>
<path d="M104.14 14.8409L99.9521 24.0607L99.1525 25.7983H100.257H102.579L103.417 23.848H107.91L108.748 25.7983H112.213L107.225 14.8054H104.14V14.8409ZM104.331 21.5075L105.664 18.4224L106.958 21.5075H104.331Z" fill="white"/>
<path d="M118.8 14.9116L116.363 18.8833L113.964 14.9116H110.27L114.725 21.7201V25.8336H117.962V21.6847L122.417 14.9116H118.8Z" fill="white"/>
<path d="M62.7515 14.9116L60.0862 21.8265L57.4208 14.9116H53.8036L58.5631 25.9045H61.5711L66.3307 14.9116H62.7515Z" fill="white"/>
<path d="M71.8135 14.7339C68.4628 14.7339 65.7213 17.2871 65.7213 20.4076C65.7213 23.5282 68.4628 26.0814 71.8135 26.0814C75.1642 26.0814 77.9057 23.5282 77.9057 20.4076C77.8676 17.2516 75.1642 14.7339 71.8135 14.7339ZM71.8135 23.3509C70.062 23.3509 68.6151 22.0034 68.6151 20.3722C68.6151 18.741 70.062 17.3935 71.8135 17.3935C73.565 17.3935 75.0119 18.741 75.0119 20.3722C75.0119 22.0034 73.565 23.3509 71.8135 23.3509Z" fill="white"/>
</svg>
