<svg width="147" height="40" viewBox="0 0 147 40" fill="none" xmlns="http://www.w3.org/2000/svg">
<path d="M105.722 14.301C105.722 15.1359 105.722 15.957 105.722 16.7919C107.525 16.7919 109.343 16.7919 111.147 16.7919C111.147 19.5838 111.147 22.3757 111.147 25.1677C112.107 25.1677 113.067 25.1677 114.027 25.1677C114.027 22.3757 114.027 19.5838 114.027 16.7919C115.831 16.7919 117.649 16.7919 119.453 16.7919C119.453 15.957 119.453 15.1359 119.453 14.301C114.885 14.301 110.303 14.301 105.722 14.301Z" fill="white"/>
<path d="M44.6603 20.6239C45.9985 20.6239 47.3221 20.6239 48.6603 20.6239C47.9912 19.6933 47.3076 18.7763 46.6385 17.8457C45.9839 18.7763 45.3148 19.707 44.6603 20.6239Z" fill="white"/>
<path d="M27.0016 14C27.0016 17.7226 27.0016 21.4451 27.0016 25.154C43.2779 25.154 59.5543 25.154 75.8307 25.154C76.2816 24.5245 76.7325 23.8949 77.1834 23.2654C79.7434 23.2654 82.3034 23.2654 84.8634 23.2654C85.3288 23.8949 85.7797 24.5245 86.2452 25.154C87.3361 25.154 88.427 25.154 89.5325 25.154C86.8125 21.4315 84.107 17.7089 81.3725 14C63.2488 14 45.1252 14 27.0016 14ZM34.0125 23.676C32.7325 23.5801 31.4089 23.2517 30.4198 22.4579C28.7034 21.0893 28.6598 18.2974 30.3179 16.874C31.307 15.9981 32.6889 15.6149 34.0125 15.5191C35.9179 15.3823 37.9689 15.6149 39.5107 16.7782C39.1761 17.1751 38.8416 17.572 38.5216 17.9689C37.2125 16.9151 35.3943 16.8193 33.7652 16.9972C32.8634 17.093 31.9034 17.4215 31.3943 18.1742C30.5652 19.4059 30.9579 21.4315 32.5725 21.9378C34.3179 22.4579 36.3107 22.4032 37.9543 21.6367C37.9543 21.2399 37.9543 20.8293 37.9398 20.4187C36.6161 20.4187 35.2925 20.4187 33.9689 20.4187C33.9689 19.926 33.9689 19.4333 33.9689 18.9269C35.8598 18.9269 37.7507 18.9269 39.6416 18.9269C39.6416 20.0629 39.6416 21.2125 39.6561 22.3484C38.0852 23.5528 35.9616 23.8128 34.0125 23.676ZM50.8125 23.5665C50.4634 23.0875 50.0998 22.5948 49.7507 22.1158C47.6998 22.1158 45.6489 22.1158 43.5979 22.1158C43.2489 22.6084 42.9143 23.0875 42.5507 23.5801C41.9107 23.5801 41.2561 23.5801 40.6161 23.5801C42.6379 20.8019 44.5434 17.9552 46.6525 15.2317C48.7907 17.9552 50.7543 20.8019 52.8052 23.5801C52.1507 23.5665 51.4816 23.5665 50.8125 23.5665ZM65.7797 23.5665C65.1834 23.5665 64.587 23.5665 63.9761 23.5665C63.9761 21.9789 63.9761 20.3913 63.9761 18.8038C62.7107 19.9123 61.4888 21.0893 60.1798 22.1705C58.8561 21.0483 57.547 19.9123 56.2234 18.7901C56.2234 20.3776 56.2234 21.9789 56.2234 23.5665C55.6125 23.5665 55.0161 23.5665 54.4198 23.5528C54.4343 20.843 54.4198 18.1195 54.4343 15.4097C54.8125 15.5055 55.147 15.6697 55.4234 15.9297C57.0088 17.312 58.6088 18.6806 60.2088 20.0629C61.7652 18.6669 63.3216 17.2846 64.8634 15.8887C65.1107 15.6286 65.4452 15.5055 65.7797 15.4097C65.7943 18.1195 65.7797 20.843 65.7797 23.5665ZM77.5179 17.1341C75.1761 17.1341 72.8488 17.1341 70.507 17.1341C70.507 17.6678 70.507 18.2016 70.507 18.7353C72.4707 18.7353 74.4343 18.7353 76.3979 18.7353C76.0488 19.228 75.7143 19.7344 75.3652 20.2271C73.7507 20.2271 72.1216 20.2271 70.507 20.2271C70.507 20.8293 70.507 21.4315 70.507 22.0336C71.6997 22.0336 72.907 22.0336 74.1143 22.0336C73.7507 22.5537 73.4016 23.0601 73.0379 23.5665C71.5834 23.5528 70.1434 23.5665 68.6888 23.5528C68.6888 20.8977 68.6888 18.2426 68.6888 15.5876C71.9907 15.5876 75.2925 15.5876 78.5943 15.5876C78.2452 16.1076 77.8816 16.614 77.5179 17.1341ZM78.8997 20.8566C79.5834 19.8849 80.2816 18.9269 80.9652 17.9689C81.6779 18.9269 82.3761 19.8986 83.0743 20.8566C81.6925 20.8566 80.2961 20.8566 78.8997 20.8566Z" fill="white"/>
<path d="M103.104 20.1723C104.646 18.9816 104.646 16.4086 103.017 15.2864C101.78 14.4379 100.18 14.3284 98.6965 14.301C96.0638 14.2873 93.4456 14.301 90.8129 14.301C90.8129 17.9141 90.8129 21.5409 90.8129 25.1539C91.7729 25.1539 92.7329 25.1539 93.6929 25.1539C93.6929 23.8675 93.6929 22.581 93.6929 21.2808C95.0747 21.2808 96.471 21.2808 97.8529 21.2808C99.1038 22.5673 100.34 23.8675 101.591 25.1539C102.798 25.1539 104.02 25.1539 105.227 25.1539C103.904 23.7854 102.595 22.4031 101.257 21.0345C101.897 20.8155 102.58 20.6102 103.104 20.1723ZM100.166 18.9268L93.6929 18.9405V16.7508L100.166 16.7371C100.806 16.7371 101.329 17.2298 101.329 17.832C101.329 18.4342 100.806 18.9268 100.166 18.9268Z" fill="white"/>
</svg>
