<svg width="147" height="40" viewBox="0 0 147 40" fill="none" xmlns="http://www.w3.org/2000/svg">
<path fill-rule="evenodd" clip-rule="evenodd" d="M100.4 22.1701L100.11 22.5001C100.1 22.4701 100.09 22.4301 100.09 22.3901C100.09 22.3501 100.1 22.3201 100.11 22.2801C100.25 21.9901 100.3 21.6701 100.28 21.3401C100.28 21.1901 100.29 21.0401 100.32 20.9001C100.46 20.0401 100.43 19.1701 100.23 18.3201C99.96 17.1901 99.46 16.1401 98.76 15.2201C97.65 13.7201 96.23 12.5601 94.7 11.5401C93.34 10.6401 91.9 9.90008 90.41 9.27008C88.31 8.38008 86.13 7.72009 83.91 7.23009C82.66 6.95009 81.4 6.74008 80.13 6.54008C78.2 6.24008 76.26 6.07008 74.31 6.03008C71.98 5.99008 69.66 5.96008 67.35 6.23008C66.21 6.37008 65.06 6.46008 63.93 6.64008C62.65 6.85008 61.37 7.10009 60.1 7.40008C58.99 7.66008 57.9 7.97008 56.82 8.33008C55 8.95008 53.24 9.67008 51.56 10.6201C50.3 11.3001 49.12 12.1301 48.04 13.0701C46.8 14.1301 45.81 15.4601 45.14 16.9501C45.08 17.0801 45.04 17.2101 45 17.3401L45.08 17.3801L45.49 16.8401V16.8501C45.48 16.9601 45.49 17.0001 45.48 17.0301C45.29 17.4301 45.21 17.8501 45.22 18.2901C45.23 18.4401 45.19 18.5901 45.18 18.7401C45.05 19.6101 45.1 20.5001 45.32 21.3501C45.76 22.9601 46.64 24.4201 47.85 25.5701C49.77 27.4301 52 28.9101 54.45 29.9401C55.97 30.6201 57.52 31.2001 59.12 31.6301C60.4 31.9801 61.69 32.3101 62.98 32.5601C64.17 32.8001 65.38 32.9401 66.58 33.1201C68.17 33.3401 69.77 33.4601 71.37 33.4601C74.42 33.5501 77.46 33.4101 80.49 33.0301C81.58 32.9001 82.67 32.6601 83.77 32.4601C85.7 32.1101 87.59 31.5601 89.44 30.9101C91.6 30.1701 93.67 29.1601 95.58 27.8901C96.85 27.0301 98.03 26.0501 99 24.8501C99.59 24.1301 100.07 23.3201 100.42 22.4501C100.45 22.3601 100.46 22.2701 100.48 22.1701H100.4ZM100.02 21.9201C99.92 22.2101 99.78 22.4901 99.61 22.7501C98.87 23.8301 97.97 24.7901 96.93 25.5801C95.56 26.6601 94.07 27.5801 92.49 28.3101C89.13 29.8301 85.59 30.8801 81.96 31.4301C80.08 31.7301 78.2 31.9701 76.31 32.0301C74.47 32.0701 72.62 32.1201 70.79 32.0701C69.4 32.0301 68.01 31.8801 66.64 31.7101C65.21 31.5401 63.78 31.3201 62.37 31.0301C59.72 30.5101 57.13 29.7001 54.66 28.6101C53.08 27.9201 51.57 27.0701 50.17 26.0501C48.84 25.1101 47.71 23.9001 46.85 22.5101C46.09 21.3001 45.69 19.9001 45.72 18.4701V18.1501L45.52 18.2001C45.42 17.9401 45.42 17.6801 45.53 17.4301C45.64 17.1801 45.77 16.9401 45.91 16.7201C46.94 15.2801 48.22 14.0401 49.7 13.0801C51.31 12.0001 53.04 11.1001 54.85 10.4001C57.64 9.31008 60.51 8.56008 63.46 8.08008C65.41 7.76008 67.37 7.51008 69.35 7.46009C71.21 7.42009 73.06 7.39008 74.92 7.42008C75.97 7.44008 77.02 7.60009 78.07 7.69009C79.63 7.82009 81.17 8.07008 82.71 8.37008C84.48 8.72008 86.22 9.18008 87.93 9.75008C89.31 10.2101 90.66 10.7601 91.97 11.4101C93.95 12.3301 95.76 13.6001 97.3 15.1601C98.45 16.3201 99.27 17.7801 99.66 19.3901C99.75 19.8201 99.77 20.2701 99.81 20.7201C99.82 20.8701 99.82 21.0101 99.82 21.2001H99.81C100.1 21.3801 100.11 21.6601 100.02 21.9201Z" fill="white"/>
<path fill-rule="evenodd" clip-rule="evenodd" d="M87.67 17.83C87.48 17.81 87.3 17.79 87.13 17.76C86.94 17.72 86.81 17.58 86.7 17.42C86.81 17.15 87.04 17.24 87.23 17.22C87.41 17.21 87.59 17.22 87.8 17.22C87.88 17.05 87.95 16.91 88.01 16.76C88.26 16.06 88.55 15.38 89.04 14.8C89.46 14.32 89.93 13.94 90.61 13.97C91.45 14 92.16 14.78 92.1 15.6C92.1 15.72 92.07 15.84 92.03 15.96C91.82 16.51 91.4 16.64 90.91 16.3C90.44 15.97 90.32 15.62 90.44 14.99C90.46 14.88 90.5 14.79 90.53 14.65C90.34 14.69 90.29 14.82 90.24 14.94C90.03 15.38 89.78 16.76 89.84 17.14L90.75 17.31L91.97 17.14L92.69 14.11C92.86 14.09 93 14.05 93.15 14.05C93.47 14.04 93.79 14.06 94.11 14.04C94.4 14.03 94.63 14.1 94.85 14.4C94.71 15.26 94.43 16.16 94.25 17.1C94.53 17.26 94.94 17.15 95.12 17.53C95.1 17.78 94.9 17.76 94.71 17.76L94.14 17.79C93.89 18.36 93.83 18.95 93.69 19.53C93.55 20.11 93.43 20.69 93.29 21.27C93.15 21.84 92.96 22.4 92.96 23.01C93.22 23.06 93.31 22.88 93.39 22.74C93.58 22.36 93.76 21.96 93.94 21.57C94.03 21.39 94.09 21.2 94.19 20.95C94.34 21.31 94.1 21.52 94.04 21.76C93.97 22.01 93.88 22.25 93.76 22.47C93.65 22.71 93.5 22.92 93.4 23.17C93.99 22.66 94.08 21.86 94.46 21.24L94.55 21.28C94.51 21.4 94.5 21.53 94.45 21.64C94.21 22.16 94.02 22.71 93.73 23.21C93.59 23.46 93.38 23.66 93.13 23.8C92.88 23.94 92.6 24 92.31 23.97C91.72 23.95 90.94 23.37 90.91 22.55C90.89 21.91 91.02 21.32 91.16 20.71L91.77 18.1C91.78 18.03 91.77 17.95 91.77 17.87L91.03 17.61C90.67 17.95 90.15 17.68 89.67 17.87C89.38 19.4 89.08 20.96 88.8 22.51C88.51 24.07 88.17 25.62 87.78 27.16C87.64 27.18 87.52 27.22 87.41 27.22H85.64C85.34 27.22 85.21 27.15 85 26.86C85.29 26.67 85.52 26.42 85.62 26.06C85.75 25.6 85.88 25.13 86.01 24.66L87.37 19.3L87.68 18.09C87.69 18.01 87.67 17.94 87.67 17.83ZM61.16 17.21L60.09 17.22C59.96 17.22 59.83 17.25 59.75 17.25C59.58 17.45 59.68 17.75 59.39 17.83L59.23 17.63C58.71 17.05 58.31 16.95 57.66 17.16C57 17.4 56.43 17.85 56.06 18.45C55.32 19.53 55.03 20.86 55.24 22.15C55.29 22.56 55.45 22.94 55.71 23.26C55.97 23.58 56.29 23.86 56.72 23.94C57.17 24.03 57.56 23.87 57.89 23.56C57.98 23.48 58.04 23.33 58.22 23.37C58.23 23.41 58.25 23.46 58.23 23.49C58.02 24.22 57.84 24.96 57.58 25.67C57.47 25.99 57.25 26.29 57.02 26.54C56.77 26.82 56.46 26.81 56.1 26.56L56.41 26.46C56.69 26.38 56.83 26.19 56.9 25.92C57.06 25.27 56.85 24.77 56.28 24.44C55.89 24.21 55.42 24.35 55.22 24.74C55.15 24.9 55.09 25.08 55.08 25.25C55.02 26.16 55.39 26.68 56.34 27.04C57.05 27.29 57.82 27.25 58.5 26.92C59.18 26.59 59.7 26.01 59.95 25.29C60.21 24.52 60.43 23.74 60.62 22.95C60.98 21.48 61.32 20 61.67 18.53L61.88 17.54C61.68 17.28 61.45 17.19 61.16 17.21ZM58.01 22.56C57.88 22.79 57.73 23.02 57.4 23.15C57.4 22.98 57.37 22.83 57.4 22.7L58.11 19.75C58.17 19.46 58.22 19.17 58.3 18.88C58.37 18.63 58.45 18.36 58.56 18.12C58.62 17.98 58.74 17.87 58.87 17.7C58.96 17.85 59.05 17.92 59.06 18.01C59.11 18.3 59.17 18.6 59.15 18.89C59.07 20.18 58.68 21.45 58.01 22.56ZM53.14 23.32C53.4 23.41 53.76 23.32 53.94 23.73C53.83 23.75 53.74 23.8 53.65 23.8H49.29C49.18 23.8 49.07 23.78 48.96 23.73C48.86 23.68 48.77 23.6 48.71 23.5C48.77 23.32 48.9 23.35 49.02 23.35C49.66 23.35 49.92 23.15 50.07 22.52C50.23 21.81 50.37 21.09 50.53 20.38L51.03 18.2C51.25 17.21 51.47 16.2 51.67 15.19C51.72 14.95 51.68 14.69 51.68 14.45C51.44 14.41 51.22 14.37 51.01 14.3C50.92 14.27 50.86 14.17 50.73 14.04C50.9 14.01 50.99 13.96 51.08 13.96H55.33C55.58 13.96 55.79 14.03 56 14.31C55.83 14.35 55.71 14.38 55.61 14.38C55.13 14.4 54.83 14.63 54.7 15.09C54.61 15.4 54.54 15.72 54.48 16.03L53.54 20.44L53.04 22.7C52.99 22.92 52.96 23.13 53.14 23.32ZM84.58 17.47C83.98 17.11 83.28 16.98 82.59 17.1C81.9 17.22 81.29 17.58 80.84 18.12C80.43 18.57 80.14 19.12 79.99 19.72C79.84 20.31 79.83 20.94 79.96 21.54C80.07 22.14 80.37 22.69 80.8 23.12C81.22 23.56 81.77 23.85 82.37 23.95C82.97 24.05 83.58 23.94 84.12 23.65C84.67 23.37 85.14 22.95 85.49 22.42C85.84 21.89 86.04 21.3 86.08 20.67C86.11 19.08 85.61 18.14 84.58 17.47ZM83.95 18.32C83.64 19.72 83.34 21.12 83.01 22.52C82.95 22.77 82.85 23.01 82.72 23.23C82.56 23.5 82.43 23.53 82.06 23.43H82.07C81.94 23.18 81.98 22.91 82.03 22.65L82.62 20.04C82.76 19.44 82.88 18.84 83.04 18.26C83.1 18.03 83.25 17.82 83.4 17.64C83.49 17.52 83.66 17.44 83.83 17.53C84 17.61 84 17.77 84 17.92C84 18.05 83.98 18.19 83.95 18.32ZM73.62 18.89C73.43 18.45 73.14 18.07 72.77 17.77C72.47 17.51 72.12 17.32 71.74 17.2C71.36 17.08 70.97 17.04 70.57 17.08C70.18 17.12 69.8 17.24 69.45 17.43C69.1 17.62 68.8 17.88 68.56 18.2C68.16 18.69 67.9 19.25 67.77 19.87C67.47 21.26 67.77 22.48 68.92 23.39C69.31 23.73 69.8 23.94 70.31 23.99C70.82 24.05 71.34 23.95 71.79 23.71C73.18 23.03 73.82 21.82 73.87 20.28H73.88C73.89 19.8 73.81 19.33 73.62 18.89ZM71.61 18.93C71.37 20.06 71.11 21.17 70.84 22.28C70.76 22.61 70.63 22.93 70.49 23.22C70.37 23.47 70.15 23.55 69.87 23.44C69.72 23.24 69.74 23.02 69.79 22.79L70.6 19.19C70.67 18.86 70.75 18.53 70.85 18.2C70.89 18.05 70.96 17.9 71.05 17.76C71.21 17.51 71.4 17.49 71.71 17.65C71.84 18.09 71.71 18.51 71.61 18.93ZM78.61 17.74C78.44 17.66 78.34 17.59 78.23 17.57C77.87 17.47 77.49 17.49 77.14 17.64C76.76 17.8 76.57 18.34 76.71 18.75C76.83 19.1 77.07 19.33 77.37 19.53C77.77 19.81 78.16 20.09 78.54 20.38C79.5 21.11 79.35 22.59 78.58 23.31C78.16 23.69 77.67 23.88 77.13 23.95C76.7 24.02 76.26 23.98 75.84 23.85C75.42 23.72 75.04 23.5 74.72 23.2C74.36 22.87 74.18 22.47 74.15 21.99C74.14 21.63 74.26 21.35 74.56 21.16C74.86 20.97 75.16 21.06 75.43 21.22C75.92 21.5 76.13 21.95 76.05 22.43C75.98 22.84 75.79 23.01 75.38 23.06L75.09 23.12C75.2 23.21 75.25 23.29 75.32 23.32C75.76 23.54 76.23 23.55 76.69 23.46C77.31 23.34 77.55 22.48 77.13 21.94C77.01 21.8 76.87 21.68 76.71 21.58C76.32 21.3 75.9 21.05 75.51 20.77C74.35 19.94 74.33 18.48 75.45 17.58C75.91 17.26 76.44 17.07 77 17.05C77.55 17.02 78.11 17.16 78.59 17.44C79.02 17.7 79.41 18 79.57 18.51L79.63 18.71C79.69 19.05 79.62 19.36 79.36 19.6C79.13 19.8 78.73 19.77 78.42 19.56C78.05 19.31 77.76 19.02 77.82 18.51C77.86 18.13 77.96 17.99 78.32 17.87C78.41 17.85 78.47 17.8 78.61 17.74ZM66.04 17.73C65.54 18.17 65.07 19.28 65.17 19.75L66.04 17.73ZM63.24 18.12C62.91 18.35 62.81 18.69 62.67 19.01C62.54 19.32 62.43 19.63 62.31 19.95C62.14 19.88 62.16 19.78 62.2 19.68C62.48 19.14 62.58 18.52 62.94 18.02C62.97 17.99 62.96 17.93 62.98 17.82C62.57 18.06 62.57 18.47 62.4 18.79C62.23 19.1 62.2 19.48 61.91 19.84C61.91 19.7 61.9 19.65 61.91 19.61C62.11 19.09 62.29 18.56 62.53 18.07C62.64 17.82 62.84 17.59 63.03 17.4C63.46 16.98 64.02 16.97 64.49 17.33C64.84 17.6 65.09 17.91 65.1 18.38C65.1 18.44 65.14 18.5 65.18 18.62C65.27 18.5 65.32 18.44 65.36 18.37C65.49 18.13 65.6 17.88 65.73 17.64C65.94 17.29 66.26 17.04 66.69 17.1C66.9 17.13 67.09 17.21 67.26 17.34C67.42 17.47 67.55 17.65 67.62 17.85C67.83 18.39 67.79 18.94 67.58 19.48C67.39 19.95 66.91 20.08 66.49 19.81C66.21 19.63 65.99 19.4 65.92 19.05C65.91 18.96 65.86 18.88 65.81 18.72C65.04 20.38 64.71 22.08 64.29 23.78C64.16 23.8 64.06 23.83 63.95 23.84H62.71C62.43 23.85 62.22 23.75 62.04 23.46C62.47 21.69 62.88 19.91 63.24 18.12Z" fill="white"/>
<path d="M97.46 6.06011C95.39 6.05011 94.5 8.32011 95.27 9.74011C95.6 10.3701 96.15 10.8501 96.82 11.0801C97.2 11.2301 97.61 11.2801 98.02 11.2301C98.43 11.1801 98.81 11.0301 99.15 10.7901C99.48 10.5501 99.76 10.2301 99.94 9.86011C100.12 9.49011 100.21 9.08011 100.2 8.66011C100.21 7.15011 98.82 6.02011 97.46 6.06011ZM97.24 10.7101C96.34 10.6101 95.78 9.91011 95.64 9.08011C95.55 8.57011 95.64 8.04011 95.89 7.59011C96.12 7.21011 96.45 6.91011 96.85 6.73011C97.25 6.55011 97.69 6.50011 98.12 6.58011C98.55 6.68011 98.93 6.94011 99.2 7.30011C99.47 7.66011 99.6 8.10011 99.58 8.55011C99.68 9.71011 98.62 10.8601 97.24 10.7101ZM98.06 8.89011C98.17 8.82011 98.28 8.77011 98.36 8.69011C98.46 8.57011 98.58 8.45011 98.62 8.31011C98.74 7.96011 98.58 7.64011 98.21 7.44011C97.65 7.14011 97.06 7.24011 96.46 7.28011C96.42 7.37011 96.39 7.44011 96.39 7.50011C96.38 8.22011 96.38 8.94011 96.38 9.65011C96.39 10.0201 96.54 10.1101 96.97 10.0001L97.03 9.04011C97.38 8.92011 97.48 8.93011 97.65 9.18011C97.78 9.36011 97.88 9.57011 97.99 9.77011C98.17 10.0701 98.43 10.1501 98.73 10.0101C98.63 9.57011 98.27 9.30011 98.06 8.89011ZM97.08 8.37011C96.97 8.19011 96.98 8.00011 97.08 7.76011C97.41 7.70011 97.72 7.64011 97.98 7.88011C97.99 8.39011 97.69 8.55011 97.08 8.37011Z" fill="white"/>
</svg>
