<svg width="146" height="40" viewBox="0 0 146 40" fill="none" xmlns="http://www.w3.org/2000/svg">
<path d="M74.7359 8H74.0616V32H74.7359V27.3822H83.2535V24.5862H76.7V21.3664H82.3023V18.5494H76.7V15.4348H83.2535V12.6178H74.7359V8Z" fill="white"/>
<path d="M46.3594 21.5983L43.8694 17.7517L40.6778 12.9887L40.6461 12.9409H38.0005V27.0586H40.9363V18.381L43.1256 21.7619L46.6469 27.0586H49.3136V12.9409H46.3594V21.5983Z" fill="white"/>
<path d="M51.4348 27.0586H61.3338V24.3851H54.4508V21.3063H60.3348V18.6126H54.4508V15.6345H61.3338V12.9409H51.4348V27.0586Z" fill="white"/>
<path d="M62.7482 15.6547H66.2029V27.0586H69.214V15.6547H72.6472V12.9409H62.7482V15.6547Z" fill="white"/>
<path d="M93.7335 21.5983L91.2435 17.7542L88.0518 12.9913L88.0202 12.9409H85.3745V27.0586H88.3077V18.381L90.497 21.7619L94.021 27.0586H96.6877V12.9409H93.7335V21.5983Z" fill="white"/>
<path d="M98.1015 12.9409V15.6547H101.556V27.0586H104.567V15.6547H108V12.9409H98.1015Z" fill="white"/>
</svg>
