<svg width="147" height="40" viewBox="0 0 147 40" fill="none" xmlns="http://www.w3.org/2000/svg">
<path d="M50.9025 11.0093H28.0016V27.0525C28.0016 27.9248 28.7179 28.627 29.5946 28.627H52.4634V12.5625C52.4741 11.7008 51.7685 11.0093 50.9025 11.0093ZM49.0422 26.4673H31.4228C31.0165 26.4673 30.6851 26.1375 30.6851 25.7439C30.6851 25.3396 31.0165 25.0205 31.4228 25.0205H49.0422C49.4484 25.0205 49.7799 25.3503 49.7799 25.7439C49.7799 26.1375 49.4484 26.4673 49.0422 26.4673ZM49.7478 21.6267C49.7478 22.4778 49.0315 23.18 48.1441 23.18H32.2995C31.4121 23.18 30.6958 22.4885 30.6958 21.6267V14.9775C30.6958 14.1264 31.4121 13.4243 32.2995 13.4243H48.1441C49.0315 13.4243 49.7478 14.1158 49.7478 14.9775V21.6267Z" fill="#FF981F"/>
<path d="M37.9237 14.8403V21.6917H42.2858V14.8403H37.9237ZM40.0834 19.4788C40.0192 19.5958 39.8909 19.6703 39.7626 19.6703C39.474 19.6703 39.2922 19.3512 39.4526 19.1065L40.3079 17.7341H39.3991C39.2067 17.7341 39.0463 17.5745 39.0463 17.383C39.0463 17.1915 39.2067 17.0319 39.3991 17.0319H40.6607C40.8104 17.0319 40.9387 17.0851 41.0349 17.1809C41.1418 17.2872 41.1846 17.4043 41.1846 17.5532L40.0834 19.4788Z" fill="#FF981F"/>
<path d="M32.193 14.8408V21.6922H36.5551V14.8408H32.193ZM34.3099 19.4793C34.2457 19.5963 34.1174 19.6708 33.9891 19.6708C33.7005 19.6708 33.5187 19.3516 33.6791 19.1069L34.5344 17.7346H33.6256C33.4332 17.7346 33.2728 17.575 33.2728 17.3835C33.2728 17.192 33.4332 17.0324 33.6256 17.0324H34.8872C35.0369 17.0324 35.1652 17.0856 35.2614 17.1813C35.3683 17.2877 35.4111 17.4048 35.4111 17.5537L34.3099 19.4793Z" fill="#FF981F"/>
<path d="M43.7065 14.8403V21.6917H48.0686V14.8403H43.7065ZM45.8983 19.4788C45.8341 19.5958 45.7058 19.6703 45.5775 19.6703C45.2889 19.6703 45.1071 19.3512 45.2675 19.1065L46.1228 17.7341H45.214C45.0216 17.7341 44.8612 17.5745 44.8612 17.383C44.8612 17.1915 45.0216 17.0319 45.214 17.0319H46.4756C46.6253 17.0319 46.7536 17.0851 46.8498 17.1809C46.9567 17.2872 46.9995 17.4043 46.9995 17.5532L45.8983 19.4788Z" fill="#FF981F"/>
<path d="M65.0795 11.0103C65.5392 11.0103 65.9241 11.1698 66.2448 11.489C66.5656 11.8082 66.7259 12.1912 66.7259 12.6486V14.8296C66.7259 15.2764 66.5656 15.6594 66.2448 15.9785C65.9241 16.2977 65.5392 16.4573 65.0795 16.4573H64.438L66.7152 19.1702H63.8713L61.5834 16.4573H59.6162V19.1702H56.8899V11.0103H65.0795ZM63.989 14.2657V13.1912H59.6162V14.2763H63.989V14.2657Z" fill="white"/>
<path d="M72.2101 13.1916V14.0108H78.0903V16.1704H72.2101V16.9896H79.3091V19.1705H71.1302C70.6705 19.1705 70.2856 19.011 69.9649 18.6918C69.6441 18.3726 69.4838 17.9896 69.4838 17.5322V12.6384C69.4838 12.1809 69.6441 11.7979 69.9649 11.4787C70.2856 11.1596 70.6705 11 71.1302 11H79.3091V13.1809H72.2101V13.1916Z" fill="white"/>
<path d="M91.8927 11.0107V13.1917H88.3325V19.16H85.6062V13.1917H82.0674V11.0107H91.8927Z" fill="white"/>
<path d="M102.851 11.0107C103.311 11.0107 103.696 11.1703 104.017 11.4895C104.338 11.8086 104.498 12.1916 104.498 12.6491V14.83C104.498 15.2769 104.338 15.6599 104.017 15.979C103.696 16.2982 103.311 16.4578 102.851 16.4578H102.21L104.487 19.1706H101.643L99.3554 16.4578H97.3882V19.1706H94.6619V11.0107H102.851ZM101.761 14.2662V13.1917H97.3882V14.2768H101.761V14.2662Z" fill="white"/>
<path d="M115.618 11.0106C116.077 11.0106 116.462 11.1702 116.783 11.4894C117.104 11.8085 117.264 12.1915 117.264 12.649V17.5322C117.264 17.9896 117.104 18.3726 116.783 18.6918C116.462 19.011 116.077 19.1705 115.618 19.1705H109.075C108.615 19.1705 108.23 19.011 107.909 18.6918C107.588 18.3726 107.428 17.9896 107.428 17.5322V12.6384C107.428 12.1809 107.588 11.7979 107.909 11.4787C108.23 11.1596 108.615 11 109.075 11H115.618V11.0106ZM114.527 16.979V13.1916H110.154V16.979H114.527Z" fill="white"/>
<path d="M65.0795 11.0103C65.5392 11.0103 65.9241 11.1698 66.2448 11.489C66.5656 11.8082 66.7259 12.1912 66.7259 12.6486V14.8296C66.7259 15.2764 66.5656 15.6594 66.2448 15.9785C65.9241 16.2977 65.5392 16.4573 65.0795 16.4573H64.438L66.7152 19.1702H63.8713L61.5834 16.4573H59.6162V19.1702H56.8899V11.0103H65.0795ZM63.989 14.2657V13.1912H59.6162V14.2763H63.989V14.2657Z" fill="white"/>
<path d="M72.2101 13.1916V14.0108H78.0903V16.1704H72.2101V16.9896H79.3091V19.1705H71.1302C70.6705 19.1705 70.2856 19.011 69.9649 18.6918C69.6441 18.3726 69.4838 17.9896 69.4838 17.5322V12.6384C69.4838 12.1809 69.6441 11.7979 69.9649 11.4787C70.2856 11.1596 70.6705 11 71.1302 11H79.3091V13.1809H72.2101V13.1916Z" fill="white"/>
<path d="M91.8927 11.0107V13.1917H88.3325V19.16H85.6062V13.1917H82.0674V11.0107H91.8927Z" fill="white"/>
<path d="M102.851 11.0107C103.311 11.0107 103.696 11.1703 104.017 11.4895C104.338 11.8086 104.498 12.1916 104.498 12.6491V14.83C104.498 15.2769 104.338 15.6599 104.017 15.979C103.696 16.2982 103.311 16.4578 102.851 16.4578H102.21L104.487 19.1706H101.643L99.3554 16.4578H97.3882V19.1706H94.6619V11.0107H102.851ZM101.761 14.2662V13.1917H97.3882V14.2768H101.761V14.2662Z" fill="white"/>
<path d="M115.618 11.0106C116.077 11.0106 116.462 11.1702 116.783 11.4894C117.104 11.8085 117.264 12.1915 117.264 12.649V17.5322C117.264 17.9896 117.104 18.3726 116.783 18.6918C116.462 19.011 116.077 19.1705 115.618 19.1705H109.075C108.615 19.1705 108.23 19.011 107.909 18.6918C107.588 18.3726 107.428 17.9896 107.428 17.5322V12.6384C107.428 12.1809 107.588 11.7979 107.909 11.4787C108.23 11.1596 108.615 11 109.075 11H115.618V11.0106ZM114.527 16.979V13.1916H110.154V16.979H114.527Z" fill="white"/>
<path d="M59.6052 22.7025V26.4686H63.9566V25.6601H60.4177V23.5111H66.6615V28.6283H58.5254C58.0763 28.6283 57.6914 28.4687 57.3707 28.1602C57.05 27.841 56.9003 27.4687 56.9003 27.0112V22.1493C56.9003 21.7025 57.0606 21.3195 57.3707 21.0003C57.6914 20.6812 58.0656 20.5322 58.5254 20.5322H66.6615V22.6919H59.6052V22.7025Z" fill="white"/>
<path d="M76.3583 20.543C76.8073 20.543 77.1815 20.7025 77.5023 21.0111C77.823 21.3302 77.9834 21.7026 77.9834 22.1601V28.639H75.2571V25.9474H70.9271V28.639H68.2222V22.1601C68.2222 21.7132 68.3825 21.3302 68.6926 21.0111C69.0133 20.6919 69.3875 20.543 69.8473 20.543H76.3583ZM75.2678 23.7771V22.7026H70.9378V23.7771H75.2678Z" fill="white"/>
<path d="M90.4381 22.1601V28.639H87.7118V24.4048L85.0069 28.639L82.302 24.4048V28.639H79.5757V22.1601C79.5757 21.7132 79.7361 21.3302 80.0568 21.0111C80.3775 20.6919 80.7624 20.543 81.2008 20.543H82.3982L85.0069 24.6176L87.6156 20.543H88.813C89.262 20.543 89.6362 20.7025 89.957 21.0111C90.2777 21.3302 90.4381 21.7132 90.4381 22.1601Z" fill="white"/>
<path d="M91.8931 28.639V20.543H94.6194V28.639H91.8931Z" fill="white"/>
<path d="M105.93 20.543V27.0219C105.93 27.4688 105.77 27.8518 105.46 28.1709C105.139 28.4901 104.765 28.639 104.305 28.639H102.915L98.8739 23.6176V28.639H96.1689V22.1601C96.1689 21.7132 96.3293 21.3302 96.6394 21.0111C96.9601 20.6919 97.3343 20.543 97.794 20.543H99.1839L103.225 25.5644V20.543H105.93Z" fill="white"/>
<path d="M110.197 22.7025V26.4686H114.548V25.6601H111.01V23.5111H117.253V28.6283H109.117C108.668 28.6283 108.283 28.4687 107.963 28.1602C107.642 27.841 107.492 27.4687 107.492 27.0112V22.1493C107.492 21.7025 107.653 21.3195 107.963 21.0003C108.283 20.6812 108.658 20.5322 109.117 20.5322H117.253V22.6919H110.197V22.7025Z" fill="white"/>
</svg>
