<svg width="147" height="40" viewBox="0 0 147 40" fill="none" xmlns="http://www.w3.org/2000/svg">
<path d="M21.7534 11.0003H30.315C30.7981 10.9953 31.2813 11.0601 31.7488 11.1897H31.754C35.0114 12.0972 37.2925 13.7875 38.7887 16.6994C38.8666 16.8489 39.0329 17.0484 38.8615 17.193C38.69 17.3376 38.5238 17.1381 38.3679 17.0534C37.4172 16.5248 36.4197 16.1359 35.3184 16.0512C32.539 15.8368 29.8303 16 27.0509 15.9502C26.649 15.9429 26.4495 16.2219 26.4222 16.6221C26.3949 17.0222 26.8446 17.2777 27.2654 17.2777C30.102 17.2727 32.9437 17.2678 35.7803 17.2728C36.1335 17.2678 36.4868 17.2927 36.8401 17.3475C38.1077 17.5669 39.022 18.6339 39.0012 19.8705C39.0012 22.6627 39.0012 25.4549 39.0012 28.2521C39.0012 28.995 38.996 28.995 38.2116 29C35.6712 29 33.1307 29 30.5903 29C26.7303 29 22.6749 26.5219 21.2202 23.0765C21.1579 22.9319 21.0072 22.7574 21.1475 22.6278C21.3241 22.4633 21.4904 22.6627 21.6358 22.7475C22.7268 23.3807 23.8957 23.7896 25.1789 23.8045C27.7765 23.8245 30.3689 23.8195 32.9664 23.8245C33.3093 23.8245 33.5362 23.6505 33.5414 23.2516C33.5466 22.8228 33.2866 22.6876 32.9281 22.6727C30.5747 22.5829 28.2213 22.6477 25.8679 22.6378C25.0679 22.6328 24.2626 22.7076 23.4626 22.6278C22.143 22.4932 21.0209 21.4212 21.0105 20.1447C20.9897 17.3376 21.0105 14.5254 21.0209 11.7183C21.0157 11.3194 21.3482 11.0053 21.7534 11.0003Z" fill="url(#paint0_linear_1747_85428)"/>
<path d="M49.1766 24.5586C47.9839 24.5586 47.0267 24.3257 46.3053 23.8607C45.4363 23.2847 45.0016 22.3844 45.0016 21.1605V20.9034H45.5012V21.1004C45.5012 23.0727 46.7305 24.0577 49.1907 24.0577C50.0319 24.0577 50.7345 23.9166 51.299 23.6336C52.0566 23.2488 52.4363 22.6523 52.4363 21.8434C52.4363 21.287 52.2978 20.8621 52.0199 20.5682C51.7886 20.3161 51.4051 20.1037 50.8685 19.9313C50.591 19.8399 49.93 19.6738 48.885 19.4312C47.7106 19.1583 46.9156 18.9053 46.4996 18.6728C45.7046 18.2074 45.3069 17.5304 45.3069 16.6396C45.3069 14.9212 46.5091 14.0609 48.9128 14.0609C51.428 14.0609 52.7043 15.1132 52.7413 17.2169H52.2417C52.1863 16.1647 51.8352 15.4417 51.1879 15.0477C50.6792 14.7238 49.9212 14.5622 48.9128 14.5622C46.842 14.5622 45.8061 15.2547 45.8061 16.6401C45.8061 17.3284 46.0977 17.8443 46.6801 18.1874C47.0595 18.4099 47.7064 18.6123 48.622 18.7943C50.2948 19.1278 51.4097 19.4817 51.9642 19.8557C52.6111 20.2802 52.9352 20.9577 52.9352 21.8885C52.9352 22.8293 52.4959 23.5364 51.6173 24.0131C50.9421 24.377 50.1288 24.5586 49.1766 24.5586ZM58.6712 24.6655C57.3025 24.6655 56.3499 24.0728 55.8137 22.8898V27H55.3145V17.05H55.8137V18.6586C56.0612 18.0953 56.4639 17.631 56.9651 17.3309C57.4735 17.022 58.038 16.8684 58.6574 16.8684C59.7299 16.8684 60.5577 17.2249 61.1397 17.9374C61.7225 18.6511 62.0141 19.5894 62.0141 20.7519C62.0141 21.9344 61.7321 22.8752 61.168 23.5731C60.5753 24.3002 59.7429 24.6655 58.6712 24.6655ZM58.7326 17.368C57.838 17.368 57.1277 17.6794 56.6018 18.3009C56.0766 18.9237 55.8133 19.7297 55.8133 20.7198C55.8133 21.7825 56.0438 22.6106 56.5052 23.2083C57.0128 23.8449 57.751 24.1642 58.7192 24.1642C59.623 24.1642 60.3241 23.8294 60.8222 23.1628C61.2832 22.5455 61.5141 21.7462 61.5141 20.7657C61.5141 19.7756 61.2787 18.9717 60.8084 18.3543C60.31 17.6965 59.6184 17.368 58.7326 17.368ZM64.8163 15.4709C64.7144 15.4709 64.6407 15.4012 64.5942 15.2589V14.2279C64.6499 14.076 64.7235 14 64.8163 14C64.8991 14 64.9922 14.0714 65.0938 14.2133V15.2747C65.0018 15.4058 64.909 15.4709 64.8163 15.4709ZM64.5945 24.4225V16.9585H65.0938V24.4225H64.5945ZM72.9247 24.5131V19.6449C72.9247 18.9266 72.7197 18.3786 72.3125 17.9991C71.906 17.6193 71.3603 17.4302 70.6763 17.4302C69.8718 17.4302 69.2363 17.7007 68.7695 18.2425C68.3024 18.7838 68.0692 19.4884 68.0692 20.3579V24.5135H67.57V17.1122H68.0692V18.4462C68.5314 17.4356 69.3962 16.9302 70.663 16.9302C71.4664 16.9302 72.1144 17.1422 72.6041 17.5675C73.1506 18.0213 73.4231 18.6641 73.4231 19.4934V24.5135L72.9247 24.5131ZM79.2019 24.7423C78.129 24.7423 77.2787 24.3783 76.6501 23.6512C76.0387 22.9529 75.7349 22.0279 75.7349 20.875C75.7349 19.7013 76.0516 18.7617 76.6844 18.0538C77.3172 17.3463 78.1664 16.9924 79.2294 16.9924C80.2923 16.9924 81.1384 17.3467 81.7682 18.0538C82.3971 18.7617 82.7105 19.7013 82.7105 20.875C82.7105 22.0379 82.3914 22.9746 81.754 23.6812C81.1163 24.3896 80.2648 24.7423 79.2019 24.7423ZM79.2152 17.4924C78.2893 17.4924 77.5626 17.8005 77.031 18.4178C76.4986 19.0343 76.2326 19.8532 76.2326 20.8746C76.2326 21.8856 76.5024 22.7008 77.0375 23.3164C77.5737 23.9338 78.2996 24.2422 79.2149 24.2422C80.132 24.2422 80.8594 23.9342 81.3998 23.3164C81.941 22.7003 82.2109 21.8856 82.2109 20.8746C82.2109 19.8428 81.9456 19.0213 81.414 18.409C80.8827 17.7979 80.1499 17.4924 79.2152 17.4924ZM94.5859 24.5766V19.7067C94.5859 18.2308 93.9477 17.492 92.6695 17.492C91.9776 17.492 91.4215 17.7115 91.007 18.1515C90.591 18.5918 90.3822 19.1808 90.3822 19.9183V24.5757H89.8838V19.7067C89.8838 18.2308 89.2315 17.492 87.9263 17.492C87.1965 17.492 86.6233 17.795 86.2073 18.4019C85.8477 18.9375 85.6676 19.6103 85.6676 20.4192V24.5766H85.1661V17.1743H85.6676V18.4629C86.1103 17.4824 86.9095 16.9919 88.0656 16.9919C89.1758 16.9919 89.901 17.4924 90.2433 18.4938C90.6494 17.4924 91.4494 16.9919 92.6421 16.9919C94.2698 16.9919 95.0832 17.8464 95.0832 19.5552V24.5766H94.5859ZM98.0254 21.0412C98.0826 23.1753 99.0414 24.2414 100.905 24.2414C101.531 24.2414 102.087 24.0857 102.572 23.7726C103.056 23.4583 103.405 22.9988 103.617 22.3919H104.129C103.889 23.2304 103.463 23.8428 102.854 24.2264C102.299 24.5695 101.637 24.741 100.868 24.741C99.7608 24.741 98.9139 24.3875 98.3303 23.6796C97.796 23.013 97.5262 22.0822 97.5262 20.8888C97.5262 19.7364 97.8353 18.798 98.4498 18.0747C99.0639 17.3522 99.8936 16.9903 100.939 16.9903C101.974 16.9903 102.802 17.3154 103.421 17.9649C104.04 18.6144 104.351 19.4972 104.351 20.6129V21.0395H98.0258L98.0254 21.0412ZM100.946 17.4924C100.096 17.4924 99.4139 17.7683 98.8979 18.3193C98.3811 18.8703 98.0914 19.6103 98.0258 20.5415H103.769C103.75 19.6107 103.487 18.8707 102.98 18.3193C102.474 17.7679 101.794 17.4924 100.946 17.4924ZM112.192 24.5766V19.7067C112.192 18.9884 111.987 18.4399 111.58 18.0605C111.174 17.6815 110.628 17.492 109.944 17.492C109.14 17.492 108.504 17.7625 108.037 18.3034C107.569 18.8448 107.336 19.5498 107.336 20.4192V24.5766H106.837V17.1743H107.336V18.5088C107.799 17.4974 108.664 16.9924 109.93 16.9924C110.734 16.9924 111.384 17.2048 111.871 17.6297C112.417 18.0843 112.69 18.7262 112.69 19.5556V24.5766H112.192ZM121.416 24.5766V22.9069C120.823 24.1312 119.85 24.7418 118.491 24.7418C117.444 24.7418 116.626 24.3679 116.034 23.6199C115.471 22.9211 115.188 22.0112 115.188 20.8892C115.188 19.746 115.471 18.8206 116.034 18.1131C116.644 17.3651 117.481 16.9907 118.543 16.9907C119.904 16.9907 120.859 17.5872 121.415 18.7805V16.9907H121.916V24.5749H121.415L121.416 24.5766ZM118.482 17.4924C117.596 17.4924 116.9 17.8313 116.392 18.5084C115.922 19.1361 115.686 19.9292 115.686 20.8905C115.686 21.8609 115.917 22.6494 116.378 23.2563C116.885 23.9141 117.587 24.2418 118.481 24.2418C119.368 24.2418 120.082 23.9141 120.627 23.2563C121.153 22.6294 121.415 21.8405 121.415 20.8905C121.415 19.8491 121.162 19.0214 120.653 18.4094C120.148 17.7979 119.422 17.4924 118.482 17.4924ZM124.502 24.5766V14.2909H125.002V24.5766H124.502Z" fill="white" stroke="white" stroke-width="0.811113" stroke-linejoin="round"/>
<defs>
<linearGradient id="paint0_linear_1747_85428" x1="39.0144" y1="22.2595" x2="21.1155" y2="17.2624" gradientUnits="userSpaceOnUse">
<stop stop-color="#34BCD5"/>
<stop offset="1" stop-color="#A1509E"/>
</linearGradient>
</defs>
</svg>
